<svg width="52" height="26" viewBox="0 0 52 26" fill="none" xmlns="http://www.w3.org/2000/svg">
<path d="M51.2958 25.8339C51.2958 25.8339 39.9707 25.8339 26.0004 25.8339C12.0302 25.8339 0.705078 25.8339 0.705078 25.8339C0.705078 11.8637 12.0302 0.538574 26.0004 0.538574C39.9707 0.538574 51.2958 11.8637 51.2958 25.8339Z" fill="url(#paint0_linear_304_827)"/>
<path d="M2.2667 24.3339H2.25159C3.02557 11.8909 13.3624 2.03857 26.0004 2.03857C38.6384 2.03857 48.9753 11.8909 49.7493 24.3339H49.7342H49.7073H49.6801H49.6528H49.6252H49.5974H49.5694H49.5412H49.5128H49.4842H49.4553H49.4263H49.397H49.3675H49.3379H49.308H49.2779H49.2475H49.217H49.1863H49.1553H49.1242H49.0928H49.0613H49.0295H48.9975H48.9654H48.933H48.9004H48.8676H48.8346H48.8014H48.768H48.7344H48.7006H48.6666H48.6323H48.5979H48.5633H48.5285H48.4935H48.4583H48.4228H48.3872H48.3514H48.3154H48.2792H48.2428H48.2062H48.1694H48.1324H48.0952H48.0578H48.0202H47.9824H47.9445H47.9063H47.8679H47.8294H47.7906H47.7517H47.7125H47.6732H47.6337H47.594H47.5541H47.514H47.4737H47.4333H47.3926H47.3518H47.3107H47.2695H47.2281H47.1865H47.1447H47.1028H47.0606H47.0183H46.9757H46.933H46.8901H46.8471H46.8038H46.7604H46.7167H46.6729H46.6289H46.5848H46.5404H46.4959H46.4512H46.4063H46.3612H46.3159H46.2705H46.2249H46.1791H46.1331H46.087H46.0407H45.9942H45.9475H45.9006H45.8536H45.8064H45.759H45.7115H45.6638H45.6159H45.5678H45.5196H45.4712H45.4226H45.3738H45.3249H45.2758H45.2265H45.1771H45.1275H45.0777H45.0277H44.9776H44.9273H44.8769H44.8263H44.7755H44.7245H44.6734H44.6221H44.5707H44.5191H44.4673H44.4153H44.3632H44.311H44.2585H44.2059H44.1532H44.1002H44.0472H43.9939H43.9405H43.887H43.8332H43.7794H43.7253H43.6711H43.6167H43.5622H43.5076H43.4527H43.3977H43.3426H43.2873H43.2318H43.1762H43.1205H43.0645H43.0085H42.9522H42.8959H42.8393H42.7826H42.7258H42.6688H42.6117H42.5544H42.4969H42.4393H42.3816H42.3237H42.2657H42.2075H42.1491H42.0906H42.032H41.9732H41.9143H41.8552H41.796H41.7366H41.6771H41.6175H41.5577H41.4977H41.4376H41.3774H41.317H41.2565H41.1959H41.1351H41.0741H41.013H40.9518H40.8904H40.8289H40.7673H40.7055H40.6436H40.5815H40.5194H40.457H40.3946H40.3319H40.2692H40.2063H40.1433H40.0802H40.0169H39.9535H39.8899H39.8262H39.7624H39.6985H39.6344H39.5702H39.5058H39.4413H39.3767H39.312H39.2471H39.1821H39.117H39.0517H38.9864H38.9208H38.8552H38.7894H38.7235H38.6575H38.5914H38.5251H38.4587H38.3922H38.3255H38.2588H38.1919H38.1249H38.0577H37.9904H37.9231H37.8555H37.7879H37.7202H37.6523H37.5843H37.5162H37.448H37.3796H37.3111H37.2425H37.1738H37.105H37.0361H36.967H36.8978H36.8286H36.7592H36.6896H36.62H36.5502H36.4804H36.4104H36.3403H36.2701H36.1998H36.1294H36.0588H35.9882H35.9174H35.8465H35.7756H35.7045H35.6333H35.5619H35.4905H35.419H35.3474H35.2756H35.2038H35.1318H35.0597H34.9876H34.9153H34.8429H34.7704H34.6978H34.6251H34.5523H34.4794H34.4064H34.3333H34.2601H34.1868H34.1134H34.0399H33.9663H33.8926H33.8187H33.7448H33.6708H33.5967H33.5225H33.4482H33.3738H33.2993H33.2247H33.15H33.0752H33.0003H32.9254H32.8503H32.7751H32.6998H32.6245H32.549H32.4735H32.3979H32.3221H32.2463H32.1704H32.0944H32.0183H31.9421H31.8659H31.7895H31.7131H31.6365H31.5599H31.4832H31.4064H31.3295H31.2525H31.1755H31.0983H31.0211H30.9438H30.8664H30.7889H30.7113H30.6337H30.556H30.4781H30.4002H30.3223H30.2442H30.166H30.0878H30.0095H29.9311H29.8527H29.7741H29.6955H29.6168H29.538H29.4592H29.3802H29.3012H29.2221H29.143H29.0637H28.9844H28.905H28.8256H28.746H28.6664H28.5867H28.507H28.4272H28.3473H28.2673H28.1872H28.1071H28.0269H27.9467H27.8663H27.7859H27.7055H27.6249H27.5443H27.4637H27.3829H27.3021H27.2213H27.1403H27.0593H26.9782H26.8971H26.8159H26.7346H26.6533H26.5719H26.4905H26.409H26.3274H26.2457H26.164H26.0823H26.0004H25.9186H25.8368H25.7551H25.6735H25.5919H25.5104H25.4289H25.3476H25.2662H25.185H25.1038H25.0226H24.9416H24.8606H24.7796H24.6987H24.6179H24.5372H24.4565H24.3759H24.2954H24.2149H24.1345H24.0542H23.9739H23.8938H23.8136H23.7336H23.6536H23.5737H23.4939H23.4141H23.3344H23.2548H23.1753H23.0958H23.0164H22.9371H22.8579H22.7787H22.6996H22.6206H22.5417H22.4628H22.3841H22.3054H22.2267H22.1482H22.0697H21.9914H21.913H21.8348H21.7567H21.6786H21.6006H21.5227H21.4449H21.3672H21.2895H21.212H21.1345H21.0571H20.9798H20.9025H20.8254H20.7483H20.6714H20.5945H20.5177H20.441H20.3643H20.2878H20.2114H20.135H20.0587H19.9825H19.9065H19.8305H19.7546H19.6787H19.603H19.5274H19.4518H19.3764H19.301H19.2258H19.1506H19.0755H19.0005H18.9257H18.8509H18.7762H18.7016H18.6271H18.5527H18.4784H18.4042H18.3301H18.256H18.1821H18.1083H18.0346H17.961H17.8875H17.8141H17.7408H17.6675H17.5944H17.5214H17.4485H17.3757H17.303H17.2305H17.158H17.0856H17.0133H16.9411H16.8691H16.7971H16.7253H16.6535H16.5819H16.5104H16.4389H16.3676H16.2964H16.2253H16.1543H16.0835H16.0127H15.9421H15.8715H15.8011H15.7308H15.6606H15.5905H15.5205H15.4506H15.3809H15.3112H15.2417H15.1723H15.103H15.0339H14.9648H14.8959H14.827H14.7583H14.6897H14.6213H14.5529H14.4847H14.4166H14.3486H14.2807H14.213H14.1453H14.0778H14.0104H13.9432H13.876H13.809H13.7421H13.6753H13.6087H13.5422H13.4758H13.4095H13.3433H13.2773H13.2114H13.1457H13.08H13.0145H12.9491H12.8839H12.8187H12.7537H12.6889H12.6241H12.5595H12.4951H12.4307H12.3665H12.3024H12.2385H12.1746H12.111H12.0474H11.984H11.9207H11.8576H11.7945H11.7317H11.6689H11.6063H11.5439H11.4815H11.4193H11.3573H11.2954H11.2336H11.1719H11.1104H11.0491H10.9878H10.9268H10.8658H10.805H10.7444H10.6838H10.6235H10.5632H10.5032H10.4432H10.3834H10.3238H10.2642H10.2049H10.1457H10.0866H10.0277H9.96887H9.91024H9.85175H9.79341H9.73522H9.67718H9.61929H9.56154H9.50395H9.44651H9.38921H9.33207H9.27508H9.21824H9.16155H9.10502H9.04864H8.99241H8.93633H8.88041H8.82465H8.76904H8.71358H8.65828H8.60313H8.54815H8.49331H8.43864H8.38412H8.32977H8.27556H8.22152H8.16764H8.11392H8.06035H8.00695H7.95371H7.90063H7.84771H7.79495H7.74235H7.68992H7.63765H7.58554H7.5336H7.48182H7.43021H7.37876H7.32747H7.27635H7.2254H7.17462H7.124H7.07354H7.02326H6.97314H6.9232H6.87342H6.82381H6.77437H6.7251H6.676H6.62707H6.57831H6.52972H6.48131H6.43307H6.385H6.3371H6.28938H6.24183H6.19445H6.14725H6.10023H6.05338H6.0067H5.9602H5.91388H5.86774H5.82177H5.77598H5.73037H5.68494H5.63968H5.59461H5.54971H5.505H5.46046H5.41611H5.37194H5.32795H5.28414H5.24051H5.19707H5.15381H5.11073H5.06784H5.02513H4.9826H4.94027H4.89811H4.85614H4.81436H4.77277H4.73136H4.69014H4.64911H4.60826H4.56761H4.52714H4.48686H4.44678H4.40688H4.36717H4.32766H4.28833H4.2492H4.21026H4.17151H4.13295H4.09459H4.05642H4.01845H3.98067H3.94308H3.90569H3.8685H3.8315H3.7947H3.75809H3.72168H3.68547H3.64946H3.61364H3.57803H3.54261H3.50739H3.47238H3.43756H3.40294H3.36853H3.33431H3.3003H3.26649H3.23288H3.19948H3.16627H3.13328H3.10048H3.06789H3.03551H3.00333H2.97136H2.93959H2.90803H2.87667H2.84553H2.81459H2.78385H2.75333H2.72302H2.69291H2.66302H2.63333H2.60386H2.57459H2.54554H2.5167H2.48807H2.45965H2.43144H2.40345H2.37567H2.34811H2.32076H2.29362H2.2667Z" stroke="#F64861" stroke-width="3"/>
<rect x="23.9678" y="23.7295" width="15.2046" height="2.5" rx="1.25" transform="rotate(-54.4019 23.9678 23.7295)" fill="#F64861"/>
<rect x="27" y="1.58398" width="6" height="2" rx="1" transform="rotate(90 27 1.58398)" fill="#F64861"/>
<rect x="9.39453" y="8.7002" width="6" height="2" rx="1" transform="rotate(39.0299 9.39453 8.7002)" fill="#F64861"/>
<rect x="3.19824" y="19.9495" width="6" height="2" rx="1" fill="#F64861"/>
<rect x="42.6855" y="19.9495" width="6" height="2" rx="1" fill="#F64861"/>
<rect x="43.3564" y="9.95215" width="6" height="2" rx="1" transform="rotate(135 43.3564 9.95215)" fill="#F64861"/>
<defs>
<linearGradient id="paint0_linear_304_827" x1="30.0803" y1="-8.2055" x2="27.1398" y2="18.519" gradientUnits="userSpaceOnUse">
<stop stop-color="#F64860"/>
<stop offset="1" stop-color="white"/>
</linearGradient>
</defs>
</svg>
