<svg width="32" height="37" viewBox="0 0 32 37" fill="none" xmlns="http://www.w3.org/2000/svg">
<path d="M25.5967 8.89227L28.0789 6.41007L30.4945 8.82565L28.0123 11.3079C30.465 14.378 31.6492 18.2708 31.3215 22.1868C30.9937 26.1027 29.1791 29.7445 26.2501 32.3643C23.3212 34.9841 19.5003 36.3829 15.5722 36.2736C11.6441 36.1642 7.90691 34.555 5.12824 31.7763C2.34957 28.9976 0.740312 25.2605 0.63096 21.3324C0.521609 17.4043 1.92047 13.5834 4.54024 10.6544C7.16002 7.72549 10.8019 5.91081 14.7178 5.58309C18.6337 5.25538 22.5265 6.4395 25.5967 8.89227ZM15.9993 32.8636C17.5697 32.8636 19.1247 32.5543 20.5755 31.9533C22.0264 31.3524 23.3447 30.4715 24.4551 29.3611C25.5655 28.2507 26.4464 26.9324 27.0473 25.4815C27.6483 24.0307 27.9576 22.4757 27.9576 20.9053C27.9576 19.3349 27.6483 17.7799 27.0473 16.329C26.4464 14.8782 25.5655 13.5599 24.4551 12.4495C23.3447 11.339 22.0264 10.4582 20.5755 9.85721C19.1247 9.25625 17.5697 8.94694 15.9993 8.94694C12.8277 8.94694 9.78607 10.2068 7.54345 12.4495C5.30083 14.6921 4.04093 17.7337 4.04093 20.9053C4.04093 24.0768 5.30083 27.1185 7.54345 29.3611C9.78607 31.6037 12.8277 32.8636 15.9993 32.8636ZM14.2909 12.3636H17.7076V22.6136H14.2909V12.3636ZM9.16593 0.405273H22.8326V3.82194H9.16593V0.405273Z" fill="#F64861"/>
</svg>
