<svg width="34" height="34" viewBox="0 0 34 34" fill="none" xmlns="http://www.w3.org/2000/svg">
<path d="M18.6663 30.3423V33.6756H15.333V30.3423H1.99967C1.55765 30.3423 1.13372 30.1667 0.821163 29.8541C0.508602 29.5416 0.333008 29.1176 0.333008 28.6756V5.34229H33.6663V28.6756C33.6663 29.1176 33.4907 29.5416 33.1782 29.8541C32.8656 30.1667 32.4417 30.3423 31.9997 30.3423H18.6663ZM3.66634 27.009H30.333V8.67562H3.66634V27.009ZM18.6663 12.009H26.9997V15.3423H18.6663V12.009ZM18.6663 18.6756H26.9997V22.009H18.6663V18.6756ZM11.9997 12.009V17.009H16.9997C16.9997 17.9979 16.7064 18.9646 16.157 19.7868C15.6076 20.609 14.8267 21.2499 13.9131 21.6283C12.9995 22.0068 11.9941 22.1058 11.0242 21.9129C10.0543 21.72 9.1634 21.2437 8.46414 20.5445C7.76488 19.8452 7.28867 18.9543 7.09575 17.9844C6.90282 17.0145 7.00184 16.0092 7.38028 15.0955C7.75872 14.1819 8.39958 13.401 9.22182 12.8516C10.0441 12.3022 11.0108 12.009 11.9997 12.009ZM0.333008 0.342285H33.6663V3.67562H0.333008V0.342285Z" fill="#FA5255"/>
</svg>
