<svg width="40" height="43" viewBox="0 0 40 43" fill="none" xmlns="http://www.w3.org/2000/svg">
<path d="M25.3918 9.70975H29.0027V11.3002H22.873V10.0988L26.3474 5.51181H22.9754V3.91455H28.8935V5.08178L25.3918 9.70975Z" fill="#FA5255"/>
<path d="M33.7114 17.6359H36.7501V18.9743H31.5918V17.9633L34.5156 14.1032H31.678V12.759H36.6582V13.7413L33.7114 17.6359Z" fill="#FA5255"/>
<g clip-path="url(#clip0_304_840)">
<path d="M7.01943 13.6338L13.8743 8.73755L14.4974 11.0521V18.263C14.4974 18.6191 17.821 22.0911 19.4827 23.7825L29.2753 27.6995L33.6375 26.6313L32.5692 29.391L26.2485 35.4446L16.2779 36.3348L8.08772 30.9044L5.95117 21.735L7.01943 13.6338Z" fill="url(#paint0_linear_304_840)"/>
<path d="M16.6794 13.8645C16.679 16.1732 17.3663 18.4296 18.6536 20.346C19.9409 22.2624 21.7698 23.752 23.9071 24.6247C26.0444 25.4974 28.3933 25.7138 30.654 25.2462C32.9148 24.7785 34.9851 23.6481 36.6007 21.9991V22.1651C36.6007 31.3339 29.1684 38.7663 19.9996 38.7663C10.8308 38.7663 3.39844 31.3339 3.39844 22.1651C3.39844 12.9963 10.8308 5.56396 19.9996 5.56396H20.1656C19.06 6.64491 18.182 7.93621 17.5833 9.36178C16.9845 10.7874 16.6772 12.3183 16.6794 13.8645ZM6.71867 22.1651C6.71746 25.1284 7.70731 28.0069 9.53073 30.3428C11.3541 32.6786 13.9064 34.3376 16.7813 35.0556C19.6563 35.7737 22.6888 35.5097 25.3964 34.3055C28.104 33.1014 30.3311 31.0263 31.7233 28.4105C29.2455 28.9942 26.6596 28.9352 24.211 28.239C21.7624 27.5428 19.5323 26.2325 17.7322 24.4325C15.9322 22.6324 14.6219 20.4023 13.9257 17.9537C13.2295 15.5051 13.1705 12.9192 13.7542 10.4414C11.6286 11.5738 9.85095 13.263 8.61163 15.3282C7.3723 17.3933 6.71797 19.7566 6.71867 22.1651Z" fill="#FA5255"/>
</g>
<path d="M36.0099 6.86912H39.9176V8.59027H33.2842V7.29017L37.0441 2.32619H33.395V0.597656H39.7994V1.86081L36.0099 6.86912Z" fill="#FA5255"/>
<defs>
<linearGradient id="paint0_linear_304_840" x1="22.0271" y1="-0.802255" x2="15.8512" y2="27.3526" gradientUnits="userSpaceOnUse">
<stop stop-color="#F64860"/>
<stop offset="1" stop-color="white"/>
</linearGradient>
<clipPath id="clip0_304_840">
<rect width="39.8428" height="39.8428" fill="white" transform="translate(0.078125 2.24365)"/>
</clipPath>
</defs>
</svg>
