<svg width="43" height="43" viewBox="0 0 43 43" fill="none" xmlns="http://www.w3.org/2000/svg">
<circle r="19" transform="matrix(1 0 0 -1 21.875 20.9551)" fill="url(#paint0_linear)"/>
<circle cx="20.875" cy="21.9551" r="3" fill="white"/>
<path fill-rule="evenodd" clip-rule="evenodd" d="M20.1243 4.09091C18.9946 4.09091 18.0788 3.17513 18.0788 2.04545C18.0788 0.915781 18.9946 0 20.1243 0C21.254 0 22.1698 0.915781 22.1698 2.04545C22.1698 3.17513 21.254 4.09091 20.1243 4.09091ZM33.2272 9.48247C32.4284 8.68368 32.4284 7.38858 33.2272 6.58979C34.026 5.791 35.3211 5.791 36.1199 6.58979C36.9187 7.38858 36.9187 8.68368 36.1199 9.48247C35.3211 10.2813 34.026 10.2813 33.2272 9.48247ZM25.9824 2.87454C25.5503 3.91836 26.0462 5.11483 27.09 5.54693C28.1338 5.97903 29.3303 5.48313 29.7624 4.43932C30.1945 3.3955 29.6986 2.19903 28.6548 1.76693C27.6109 1.33483 26.4145 1.83073 25.9824 2.87454ZM37.0488 15.4024C36.6162 14.3588 37.1116 13.1622 38.1552 12.7296C39.1988 12.2971 40.3954 12.7924 40.828 13.836C41.2605 14.8796 40.7652 16.0762 39.7216 16.5088C38.678 16.9413 37.4813 16.446 37.0488 15.4024ZM3.83667 4.07629C3.00963 4.02844 2.37796 3.3192 2.42581 2.49216C2.47366 1.66511 3.1829 1.03345 4.00995 1.0813L12.6684 1.58224C13.1415 1.60962 13.5739 1.85895 13.8345 2.25472C14.0952 2.6505 14.1535 3.14617 13.9918 3.59161L11.0527 11.6872C10.77 12.4659 9.90959 12.868 9.13089 12.5853C8.35219 12.3026 7.95011 11.4422 8.23281 10.6635L9.69976 6.62273C4.58515 10.7255 1.95394 17.4436 3.38978 24.3911L3.3898 24.3911L3.39147 24.3994C5.37176 34.2623 14.8614 40.6886 24.6927 38.7147C33.15 37.0166 39.0462 29.6904 39.2826 21.412C39.3063 20.5839 39.9967 19.9318 40.8248 19.9554C41.6529 19.9791 42.3051 20.6695 42.2814 21.4976C42.006 31.1372 35.1447 39.676 25.2833 41.656C13.7974 43.9622 2.75293 36.4474 0.451008 24.9941C-1.21376 16.9312 1.84042 9.09856 7.79443 4.30527L3.83667 4.07629ZM26.1062 21.4997C26.1062 20.5939 25.8642 19.7446 25.4414 19.0129L30.5603 13.894C31.146 13.3083 31.146 12.3585 30.5603 11.7727C29.9745 11.1869 29.0247 11.1869 28.4389 11.7727L23.2268 16.9849C22.5893 16.6881 21.8784 16.5225 21.1289 16.5225C18.38 16.5225 16.1516 18.7509 16.1516 21.4997C16.1516 24.2486 18.38 26.477 21.1289 26.477C23.8778 26.477 26.1062 24.2486 26.1062 21.4997ZM21.1289 19.5225C22.2209 19.5225 23.1062 20.4077 23.1062 21.4997C23.1062 22.5918 22.2209 23.477 21.1289 23.477C20.0369 23.477 19.1516 22.5918 19.1516 21.4997C19.1516 20.4077 20.0369 19.5225 21.1289 19.5225Z" fill="#F64861"/>
<defs>
<linearGradient id="paint0_linear" x1="-18" y1="-31" x2="35.7294" y2="26.2808" gradientUnits="userSpaceOnUse">
<stop stop-color="#F64860"/>
<stop offset="1" stop-color="white"/>
</linearGradient>
</defs>
</svg>
