<svg width="54" height="53" viewBox="0 0 54 53" fill="none" xmlns="http://www.w3.org/2000/svg">
<circle cx="19.5" cy="33.1924" r="8.5" fill="url(#paint0_linear)"/>
<circle cx="19" cy="33.6924" r="17" fill="url(#paint1_linear)"/>
<path d="M42 3.19238L35 9.69238C35.5 12.359 36.5 17.7924 36.5 18.1924C36.5 18.6924 45 19.1924 45.5 19.1924C45.9 19.1924 50.3333 13.859 52.5 11.1924L44.5 9.19238L42 3.19238Z" fill="url(#paint2_linear)"/>
<path fill-rule="evenodd" clip-rule="evenodd" d="M43.833 1.26847C43.7462 0.712789 43.3558 0.252368 42.8218 0.0758391C42.2878 -0.100689 41.6999 0.0363409 41.299 0.43079L33.3093 8.29159C32.9648 8.63059 32.8047 9.11484 32.8793 9.5924L34.0747 17.243C33.9834 17.301 33.8969 17.3699 33.8172 17.4496L31.8047 19.4621C28.4305 16.4922 24.0029 14.6909 19.1546 14.6909C8.5758 14.6909 0 23.2667 0 33.8455C0 44.4243 8.5758 53.0001 19.1546 53.0001C29.7334 53.0001 38.3092 44.4243 38.3092 33.8455C38.3092 29.195 36.6519 24.9317 33.8957 21.6137L35.9386 19.5709C36.0443 19.4652 36.131 19.3476 36.1985 19.2224L43.776 20.5047C44.2592 20.5865 44.7518 20.4271 45.0955 20.0778L52.9563 12.0881C53.3508 11.6872 53.4878 11.0993 53.3113 10.5653C53.1347 10.0313 52.6743 9.6409 52.1186 9.55407L44.9527 8.4344L43.833 1.26847ZM36.9653 16.3095L35.9622 9.89005L41.3201 4.61862L42.1576 9.979C42.2583 10.6233 42.7638 11.1288 43.4081 11.2295L48.7685 12.067L43.5055 17.4163L36.9653 16.3095ZM3 33.8455C3 24.9236 10.2327 17.6909 19.1546 17.6909C23.1744 17.6909 26.8513 19.1591 29.6782 21.5886L25.6764 25.5904C23.8834 24.1717 21.6173 23.3247 19.1534 23.3247C13.343 23.3247 8.63281 28.0349 8.63281 33.8453C8.63281 39.6557 13.343 44.3659 19.1534 44.3659C24.9638 44.3659 29.674 39.6557 29.674 33.8453C29.674 31.5811 28.9588 29.484 27.7419 27.7676L31.7636 23.7459C33.9821 26.512 35.3092 30.0238 35.3092 33.8455C35.3092 42.7674 28.0765 50.0001 19.1546 50.0001C10.2327 50.0001 3 42.7674 3 33.8455ZM19.1534 26.3247C20.7881 26.3247 22.301 26.8463 23.5348 27.7321L18.2245 33.0423C17.6387 33.6281 17.6387 34.5779 18.2245 35.1637C18.8103 35.7494 19.76 35.7494 20.3458 35.1637L25.5771 29.9323C26.273 31.0723 26.674 32.412 26.674 33.8453C26.674 37.9988 23.3069 41.3659 19.1534 41.3659C14.9999 41.3659 11.6328 37.9988 11.6328 33.8453C11.6328 29.6918 14.9999 26.3247 19.1534 26.3247Z" fill="#F64861"/>
<defs>
<linearGradient id="paint0_linear" x1="20.871" y1="18.8158" x2="17.0555" y2="36.1541" gradientUnits="userSpaceOnUse">
<stop stop-color="#F64860"/>
<stop offset="1" stop-color="white"/>
</linearGradient>
<linearGradient id="paint1_linear" x1="21.7419" y1="4.9393" x2="14.1109" y2="39.6159" gradientUnits="userSpaceOnUse">
<stop stop-color="#F64860"/>
<stop offset="1" stop-color="white"/>
</linearGradient>
<linearGradient id="paint2_linear" x1="44.5" y1="1.69238" x2="41.9826" y2="19.6798" gradientUnits="userSpaceOnUse">
<stop stop-color="#F64860"/>
<stop offset="1" stop-color="white"/>
</linearGradient>
</defs>
</svg>
