<svg width="1366" height="675" viewBox="0 0 1366 675" fill="none" xmlns="http://www.w3.org/2000/svg">
<g clip-path="url(#clip0)">
<rect width="1366" height="675" fill="white"/>
<rect width="1398" height="609" fill="url(#paint0_linear)"/>
<ellipse cx="517" cy="676" rx="388" ry="383" fill="url(#paint1_linear)"/>
<path d="M585.245 264.966L99.576 756.599L93.3961 766.8L176.854 764.154L618 298.5L585.245 264.966Z" fill="url(#paint2_linear)"/>
<path d="M585.219 265.183L846.079 530.768L907.691 510.639L641.552 251.696L585.219 265.183Z" fill="#015582"/>
<path d="M390.439 138.356L335.965 136.098L690.5 523.5L754.5 513.03L390.439 138.356Z" fill="#015582"/>
<path d="M361.093 162.95L-256.511 776.915L-306.916 769.713L335.964 136.098L361.093 162.95Z" fill="url(#paint3_linear)"/>
<path d="M417 137L-209.89 768.563L-140.897 769.524L481.5 139L417 137Z" fill="#D9ECF6"/>
<path d="M150.299 290.529L-357.277 759.511L-363.916 769.42L-280.424 770.582L180.302 326.45L150.299 290.529Z" fill="#D9ECF6"/>
<path d="M299.971 279.111L-184.934 771.911L-91.9426 773.205L341.195 335.19L299.971 279.111Z" fill="#8AB5CE"/>
<path d="M149.297 290.515L396 619L458.5 599L206.889 284.316L149.297 290.515Z" fill="#013B60"/>
<path d="M299.971 279.111L368.5 376L423.5 322L391.962 280.392L299.971 279.111Z" fill="#013B60"/>
<path fill-rule="evenodd" clip-rule="evenodd" d="M594.07 114.992L735.559 44.9542L759.695 35.2892L758.485 122.281L714.732 120.341L446.499 391.5L383.5 359.768L639.281 116.996L594.07 114.992Z" fill="url(#paint4_linear)"/>
<path fill-rule="evenodd" clip-rule="evenodd" d="M841.739 168.729L928.243 125.909L943 120L942.26 173.185L915.599 172.003L743 350.5L711 320L869.366 169.954L841.739 168.729Z" fill="url(#paint5_linear)"/>
<path fill-rule="evenodd" clip-rule="evenodd" d="M1083.74 119.729L1170.24 76.9091L1185 71L1184.26 124.185L1157.77 123.011L850.501 455L821.5 426L1112.18 120.99L1083.74 119.729Z" fill="url(#paint6_linear)"/>
<path d="M503.989 140.483L397.041 135.994L516.906 74.656L503.989 140.483Z" fill="#D9ECF6"/>
<path d="M331.391 90.4207L-58.4685 455.34L-49.315 473.169L343.693 90.793L352.227 94.4569L352.813 75.0886L320.66 90.0959L331.391 90.4207Z" fill="url(#paint7_linear)"/>
<path opacity="0.9" d="M874 469.603L1266 468C1266 468 1171.75 476.816 1120.97 470.818C1070.19 464.82 1099.59 476.178 977.867 469.603C904.216 471.927 885.5 470.818 874 470.818V469.603Z" fill="url(#paint8_linear)"/>
<path d="M982.5 606.5C1029.33 657.667 1119.6 753.8 1122 757H1144.5L982.5 606.5Z" fill="url(#paint9_linear)"/>
<path d="M1097.79 680.246L954 548.544C984.422 569.344 1102.62 665.765 1102.62 665.765L1185.14 678.292L1172.13 688.525L1097.79 680.246Z" fill="url(#paint10_linear)"/>
<path d="M893.5 541.5L891 556.386L919 569.5L974.149 639.5L981.5 624.5H974.149L979 616.41L971 619.5L974.149 613.012L967 614L969.662 605.084L962.5 608L964.054 598.289L956.203 602.819V594.892H949.473V588.096H946.108V579.036L939.378 586.964V582.434H937.135V573.373L929.284 571V563L925 566C925 566 926.5 553.906 926.5 553C926.5 552.094 922.365 559.612 919 561.5L916 553L909.095 556.386V548.458L905.73 552V536L899.5 552L893.5 541.5Z" fill="url(#paint11_linear)"/>
<path d="M1081.7 666.419L1076.2 676.919L1145.63 729.835L1149.49 714.596L1142.37 716.438L1145.04 707.39L1138.07 712.386L1139.49 705.316L1132.82 708.064L1133.16 698.766L1126.96 703.383L1126.03 693.592L1119.57 699.945L1117.58 692.271L1111.07 693.957L1109.36 687.378L1106.11 688.221L1103.84 679.45L1099.31 688.811L1098.17 684.426L1096 684.988L1093.73 676.217L1084.7 677.419L1081.7 666.419Z" fill="url(#paint12_linear)"/>
<path opacity="0.9" d="M1336 465C1336 465 1215.85 464.868 1156 469.756C1097.8 474.509 1141.88 460.927 1012.44 465.101C970.89 465.312 924.15 466.548 894.695 467.863C886.166 467.754 878.12 468.06 868.536 469.477C867.012 469.643 865.981 469.803 865.5 469.954C866.53 469.783 867.541 469.624 868.536 469.477C873.191 468.97 882.449 468.41 894.695 467.863C916.218 468.139 940.823 471.066 1001 465.5C1004.96 465.352 1008.77 465.22 1012.44 465.101C1059.73 464.861 1100.3 465.948 1101 469.756C1102.66 478.756 1336 465 1336 465Z" fill="#ECA9B1"/>
<path opacity="0.9" d="M869.5 481.5L866.766 479.764C866.766 479.764 871.746 479.312 879.016 478.638C882.669 477.898 886.946 477.514 894.216 477.215C908.453 475.866 924.304 474.314 931.331 473.452C935.576 472.931 959.77 468.506 1002.81 473.452C1023.18 476.184 1045.54 468.075 1106.96 469.088C1132.71 473.452 1258 475.489 1258 475.489C1258 475.489 1164.66 480.432 1113.88 474.615C1063.1 468.799 1078.04 481.864 956.312 475.489C923.188 476.502 905.253 476.761 894.216 477.215C888.706 477.737 883.437 478.229 879.016 478.638C875.884 479.273 873.209 480.17 869.5 481.5Z" fill="url(#paint13_linear)"/>
<path opacity="0.9" d="M847.248 499L828 491.014C828 491.014 906.533 484.301 920.777 482.526C925.03 481.997 949.265 477.498 992.381 482.526C1012.78 485.305 1035.18 477.059 1096.71 478.09C1122.5 482.526 1248 484.597 1248 484.597C1248 484.597 1154.5 489.623 1103.64 483.709C1052.77 477.796 1074.66 490.192 952.73 483.709C878.954 486.001 861.877 493.676 847.248 499Z" fill="url(#paint14_linear)"/>
<path opacity="0.9" d="M857 501.5L1367.5 478.5V491.5L859 529L857 501.5Z" fill="#E4BCBA"/>
<path opacity="0.9" d="M857 505.5L1368.5 488L1370 505.5L859 543L857 505.5Z" fill="#B2A3AA"/>
<path d="M587.5 23L-56 39.5L-43.5 23H587.5Z" fill="url(#paint15_linear)"/>
<path d="M125 54H-247.62L-271 73L125 54Z" fill="url(#paint16_linear)"/>
<path d="M1303.38 520.63V55.2658L1330.29 39.5693V520.63H1303.38Z" fill="#2E668E"/>
<path d="M1390.83 521.984V-3.03491L1330.29 39.5697V521.984H1390.83Z" fill="url(#paint17_linear)"/>
<path d="M1296.65 104.597L1182.29 201.018H1197.99L1303.38 106.839L1296.65 104.597Z" fill="#1A81CD"/>
<path d="M1224.9 212.231V526.16L1285.44 514.948L1280.96 158.414L1224.9 212.231Z" fill="#C4C4C4"/>
<path d="M1197.99 201.018V528.401L1244.96 535.515L1303.38 528.401V106.84L1197.99 201.018Z" fill="#4B8EA7"/>
<path d="M1224.9 272.773V212.229L1278.71 171.867L1276.47 234.653L1224.9 272.773Z" fill="url(#paint18_linear)"/>
<path d="M1224.9 375.921V281.742L1278.71 241.38L1274.23 340.043L1224.9 375.921Z" fill="url(#paint19_linear)"/>
<path d="M1224.9 461.13V389.375L1278.71 349.013L1276.47 416.283L1224.9 461.13Z" fill="url(#paint20_linear)"/>
<path d="M1224.9 479.07V470.101L1278.71 425.254L1276.47 436.465L1224.9 479.07Z" fill="#53B7EA"/>
<path d="M1224.9 209.987V221.199L1271.99 180.837V523.337H1280.96V160.656L1224.9 209.987Z" fill="#015582"/>
<path d="M1182.29 201.018V532.886L1197.99 528.401V201.018H1182.29Z" fill="#0E4569"/>
<path d="M1111 301.924V546.34L1182.76 532.885V227.926L1137.91 266.046V283.985L1111 301.924Z" fill="#10476A"/>
<path d="M1144.64 353.499V541.856L1182.76 532.887V331.075L1144.64 353.499Z" fill="#C4C4C4"/>
<path d="M1209.03 490.675C1189.91 494.694 1166.51 517.27 1166.51 517.27L1194.82 521.382L1437.65 512.276L1437 495.058C1428.98 493.347 1421.44 490.851 1411.22 489.99C1389.85 488.19 1356.92 498.061 1356.92 498.061C1356.92 498.061 1323.46 483.193 1300.92 483.781C1282.18 484.269 1254.45 495.869 1254.45 495.869C1254.45 495.869 1226.5 487.003 1209.03 490.675Z" fill="url(#paint21_linear)"/>
<path d="M1256.13 508.809C1245.07 510.981 1243.63 518.074 1242.01 520.772L1281.38 519.296C1281.38 519.296 1267.19 506.636 1256.13 508.809Z" fill="url(#paint22_linear)"/>
<path d="M1160.06 502.068C1149.82 503.98 1145.34 517.427 1144.75 524.419L1243.17 520.728C1243.17 520.728 1236.33 509.866 1229.95 508.157C1225.46 506.951 1222.25 506.703 1215.53 508.698C1208.81 510.692 1202.79 517.887 1201.43 517.938C1200.08 517.989 1195.3 512.941 1190.99 511.361C1186.68 509.78 1179.05 510.066 1179.05 510.066C1173.7 503.298 1167.94 500.596 1160.06 502.068Z" fill="url(#paint23_linear)"/>
<path d="M1085.1 511.987C1079.16 513.918 1046.5 529 1046.5 529L1152.5 524.5L1147.11 517.496C1147.11 517.496 1129.55 507.93 1117.5 507C1106.43 506.146 1091.04 510.055 1085.1 511.987Z" fill="url(#paint24_linear)"/>
<path d="M974.002 526.539C971.357 525.288 965.864 522.592 965.055 521.812L967.381 531.851L1036.46 529.26L1031.48 526.409C1031.48 526.409 1017.88 516.461 1000.94 517.428C983.999 518.396 981.194 523.572 974.002 526.539Z" fill="#003243"/>
<path d="M969.735 531.626L920.737 533.464C920.737 533.464 926.894 510.718 947.981 512.268C969.067 513.818 969.735 531.626 969.735 531.626Z" fill="#012837"/>
<path d="M-50.9993 622C17.7931 613.317 467.811 607.197 682.001 622L917.494 698.5L-303.258 747.297C-303.258 747.297 -119.792 630.683 -50.9993 622Z" fill="url(#paint25_linear)"/>
<path d="M658 557.869L663.455 538L673 538.354L670.75 566L658 557.869Z" fill="#033750"/>
<path d="M470.989 601.884C474.072 600.244 480.469 596.718 481.389 595.743L504.502 626L391.002 623.5L389.651 605.446C389.651 605.446 418.101 592.347 438.355 592.543C458.609 592.74 462.247 598.753 470.989 601.884Z" fill="#003243"/>
<path d="M444.412 624.103C462.913 625.297 593.02 631.265 597.794 631.265C597.794 631.265 539.305 576.783 493.303 582.362C447.3 587.941 444.412 624.103 444.412 624.103Z" fill="#012837"/>
<path d="M756.776 505.85L646 526.987C652.386 541.685 674.616 540.924 709.219 541.685C887.764 542.14 977.051 543.488 1173.89 533.078C1370.73 522.667 1487 500.244 1487 500.244V465C1487 465 1278.87 479.37 1145.36 486.088C999.486 493.429 771.617 500.244 771.617 500.244L780.21 510.655L756.776 505.85Z" fill="url(#paint26_linear)"/>
<path d="M575.692 707L548.885 700.763L541 668.796L564.062 605L582 610.32L575.692 707Z" fill="#033750"/>
<path d="M548.5 702L533 701.21V607.57L564 605L543.075 668.828L548.5 702Z" fill="#50739A"/>
<path d="M646.457 527L632 544.872L636.795 550.651L654.343 557L655 533.652L646.457 527Z" fill="#033750"/>
<path d="M683.125 540.942L671 568H941.517L1124.72 560.948L1484 542.875L1477.62 501L994.53 537.443L683.125 540.942Z" fill="url(#paint27_linear)"/>
<path d="M553.798 577L510 596.907L533.463 608.056L563.183 605.667L580.235 610.515L589.774 608.852L601.506 603.278V610.444L675.805 614.426L712.564 610.444L702.397 617.611L749.323 620L926.078 608.852H1099.7H1515L1484.5 584.167L805.634 588.944H607.763L577.261 584.167L553.798 577Z" fill="url(#paint28_linear)"/>
<path d="M510.667 597L477 699H533V607.818L510.667 597Z" fill="#033750"/>
<path d="M581.101 610.323L576 707L1544 690.545V645.881L1485.4 602H1160.39H929.136L719.755 614.537L715.848 608.269L685.379 610.619L604.058 610.323L603.948 602.134L590.667 608.402L581.101 610.323Z" fill="#015681"/>
<path d="M860 497C1100.09 488.65 1230.67 482.535 1470 465L1474 474.224C1233.63 486.557 1099.4 490.316 860 497Z" fill="url(#paint29_linear)"/>
<path d="M652 555.424L652.65 532C655.9 534.571 660.438 537.662 665 539.071L658.5 559L652 555.424Z" fill="#50739A"/>
<path d="M590 608.471L590.667 646H593.067L604 610.412V602L590 608.471Z" fill="url(#paint30_linear)"/>
<path d="M685 610.875L695.935 644L719 615.25L715.852 609L685 610.875Z" fill="url(#paint31_linear)"/>
<path d="M801.045 671.762L577.913 675.377L576 717L829.156 700.296L1521 717V644H971.273L801.045 671.762Z" fill="url(#paint32_linear)"/>
<path d="M558.188 555L555 576.5L558.267 586.482L694.16 598L1486.44 587.882L1496 560.691L1024.52 567.286H946.446L937.049 571.125H615.28L577.792 561.143L558.188 555Z" fill="#50739A"/>
<path d="M632.65 544.56L558 554.8L617.934 574H936.253L950.331 569.911L1494 565.04L1478.05 542L980.051 564.187H936.253H871.338H715.698H670.336L632.65 544.56Z" fill="url(#paint33_linear)"/>
<path d="M1077.99 95H854C854 95 863.221 59.5529 892.967 53.2657C922.713 46.9784 934.017 62.7373 934.017 62.7373C934.017 62.7373 957.417 41.7869 975.959 40.2422C1017.9 36.7483 1033.96 72.2089 1033.96 72.2089C1033.96 72.2089 1043.38 66.5193 1050.03 66.5851C1067.28 66.756 1072.04 80.2006 1072.04 80.2006C1072.04 80.2006 1079.02 75.8393 1083.94 76.0568C1100 76.7671 1100 95 1100 95H1077.99Z" fill="url(#paint34_linear)"/>
<path d="M1478 666L981 689.368L1478 702V666Z" fill="url(#paint35_linear)"/>
<path d="M653.5 546C644.5 546.503 429 602.5 429 602.5L221.5 675H449C450.5 677 783 576 790 572C797 568 797.107 565.875 794.5 562.5C791.893 559.125 774 559.5 774 559.5L853 545.5C857.83 546.055 862.375 545 866.5 542C870.625 539 879.5 539 883 539C886.5 539 897.522 538.5 902.5 538.5C915.5 538.5 931.5 533.5 931.5 533.5C922.952 535.995 912.5 536.875 905 535C897.5 533.125 894 531 894 531L894.5 533.5L880.5 530.5C880.5 530.5 864.377 530.861 856 532C847.623 533.139 835.786 529.971 827 526L836.5 518.5L822.5 522V519.5C822.5 519.5 807.5 528 792 524C785.632 522.357 781.5 521 781.5 521C757.384 531.894 736.06 535.302 671 548C671 548 662.5 545.497 653.5 546Z" fill="url(#paint36_linear)"/>
<path d="M813.546 503.278V494.134H831.834L833.448 503.278L829.145 507.044L813.546 503.278Z" fill="#EBA993"/>
<path d="M835.599 497.9L809.78 496.286L779.5 341L777.507 313.5V290.275L860.341 297.806L901.221 504.354L877.554 510.271L827.53 367.731L835.599 497.9Z" fill="#013B60"/>
<path d="M805.444 136.616L796.228 131.823L795.258 130.864C795.258 130.864 796.39 121.757 801.079 120.319C805.768 118.881 810.003 115.867 816.116 116.005C824 116.181 831.639 120.319 834.549 124.153C837.459 127.988 839.886 135.519 836.974 141.889C836.239 143.498 834.549 145.723 834.549 145.723C832.77 147.481 829.019 151.092 828.243 151.475C827.467 151.859 826.303 147.8 825.818 145.723L819.512 133.261L805.444 136.616Z" fill="#012837"/>
<path d="M807.895 191.422C809.549 194.05 815.159 199.373 815.159 199.373C815.159 199.373 822.648 196.763 825.379 193.456C827.998 190.286 825.894 186.173 828.003 182.648C829.883 179.504 833 176 833 176C831.51 172.336 830.554 170.309 829.475 166.561L804.951 175.823C804.951 175.823 804.589 186.166 807.895 191.422Z" fill="#EBA993"/>
<path d="M793.819 158.78C791.213 147.89 796.81 127.823 796.81 127.823C796.81 127.823 802.85 133.138 806.5 133.641C812.701 134.497 821.385 131.174 821.385 131.174C821.385 131.174 824.219 137.606 825.724 141.846C827.034 145.533 827.832 150.349 827.832 150.349C827.832 150.349 832.564 144.709 834.978 147.134C836.375 148.538 836.957 150.244 836.445 152.158C834.917 157.869 830.423 158.899 830.423 158.899C829.905 162.066 828.769 162.162 829.5 166.5C829.5 166.5 829.65 168.543 827.5 170C822.456 173.418 811.591 178.114 805.519 177.973C804.001 177.938 804.251 177.588 802.777 177.221C800.394 176.628 795.645 166.41 793.819 158.78Z" fill="#EBA993"/>
<path d="M811.394 308.026C799.912 307.26 774.962 299.5 774.962 299.5V288.943V284.095C774.962 284.095 766.933 285.867 762.328 284.095L762.177 284.037C755.607 281.51 753.286 280.618 751.151 269.551C748.999 258.401 770.589 195.862 770.589 195.862L798.774 183.257L800.098 174.092L805.092 177.924L808.493 189.074L814.811 198.286C819.509 197.694 822.152 196.683 824.044 192.953C825.936 189.223 827.931 180.833 827.931 180.833L831.5 172.5L840 181L872.639 195.862L892.077 264.218C892.077 264.218 894.229 276.828 886.732 280.702C879.235 284.575 860.004 274.884 860.004 274.884L862.493 308.026C862.493 308.026 835.599 309.639 811.394 308.026Z" fill="white"/>
<path d="M886.698 519.953L882.5 509L896.5 505.5L903.373 517.264C916.748 528.819 921.123 522.642 917.895 528.021C917.895 528.021 908.751 532.324 903.373 529.635C897.994 526.946 888.379 530.711 886.698 528.021C885.017 525.332 886.698 519.953 886.698 519.953Z" fill="#EBA993"/>
<path d="M807 238L764 229V231L783.902 256.508L828.5 266.5L807 238Z" fill="#EDF5FD"/>
<path d="M806.554 239.714L764.061 231.108L783.962 259.616L825.918 266.071L806.554 239.714Z" fill="#C9D9E8"/>
<path d="M773.495 258.54C773.742 259.616 771.052 264.457 771.052 264.457C774.814 269.908 776.26 272.003 781.81 273.601C781.81 273.601 785.721 271.719 787.727 270.911C790.708 269.711 790.596 271.27 795.795 269.298C800.995 267.326 811.717 263.273 813.008 262.843C814.298 262.413 821.076 259.616 820 258.54C818.924 257.464 816.235 256.926 814.083 257.465C808.865 258.77 803.863 259.616 803.863 259.616L815.159 252.623C815.159 252.623 814.083 251.01 811.932 251.01C809.78 251.01 799.022 254.775 799.022 254.775C799.022 254.775 792.93 257.289 792.568 256.926C792.205 256.564 792.568 255.851 792.568 255.851L799.022 246.169C799.022 246.169 799.56 244.555 796.871 245.093C794.181 245.63 787.727 252.623 787.727 252.623C787.727 252.623 784.718 253.088 782.886 252.623C780.116 251.921 776.969 248.32 776.969 248.32C776.969 248.32 776.671 246.169 775.893 245.093C775.116 244.017 773.825 241.329 769.977 241.328L772.128 248.32C772.128 248.32 771.59 252.623 772.128 254.775C772.666 256.927 773.248 257.464 773.495 258.54Z" fill="#EBA993"/>
<path d="M845.819 240.252C845.819 241.328 844.456 249.518 837.212 249.934C837.212 249.934 833.985 245.631 832.371 245.631C830.758 245.631 831.457 249.053 829.682 249.934C828.177 250.681 825.379 249.934 825.379 249.934V248.858C825.379 248.858 822.689 250.472 821.614 248.858C820.538 247.244 820.538 244.017 820.538 244.017C815.23 243.031 812.459 241.819 808.167 237.562L814.083 231.646C814.083 231.646 811.394 232.184 809.242 232.722C807.091 233.259 805.477 233.259 804.939 231.646C804.401 230.032 817.311 224.653 817.311 224.653L830.758 226.805C830.758 226.805 845.819 239.176 845.819 240.252Z" fill="#EBA993"/>
<path d="M836.137 505.777C835.689 503.838 835.136 502.796 832.941 501.127C830.655 503.337 828.113 504.025 822.288 504.704L813.055 501.127C806.449 509.908 799.959 512.697 789.341 515.475L781.451 517.581C780.944 520.12 781.511 521.205 783.227 522.231C783.227 522.231 799.562 527.721 813.055 523.661C816.806 522.533 822.288 519.727 822.288 519.727V522.231L836.137 518.654V505.777Z" fill="#013B60"/>
<path d="M880.5 521C880.911 519.053 882.838 515.711 885 514C888.134 517.046 888.845 516.78 894.159 516.256L903.321 512.501C910.097 521.153 916.638 523.815 927.309 526.387L935.238 528.339C935.794 530.868 935.248 531.964 933.553 533.022C933.553 533.022 917.328 538.828 903.758 535.031C899.985 533.976 894.451 531.276 894.451 531.276L894.499 533.78C889.065 532.488 885 531.5 880.5 530.5L880.5 521Z" fill="#013B60"/>
<path d="M829.5 186.5L828 196L835.5 195L829.5 186.5Z" fill="url(#paint37_linear)"/>
<path d="M804 185L802 194L809 196L804 185Z" fill="url(#paint38_linear)"/>
<path d="M789 147.637L793.56 144.5V146L791.027 147.637C791.027 147.637 797.233 146.389 800.65 147.637C801.947 148.111 803.689 149.254 803.689 149.254H805.715C805.715 149.254 807.11 148.486 808.247 148.041C810.273 147.248 812.299 146.933 814.325 147.233C816.601 147.57 819.896 148.85 819.896 148.85L828 146.425V147.637L820.403 150.466C820.403 150.466 820.457 152.518 819.896 153.699C819.336 154.88 818.377 156.041 816.858 156.528C815.338 157.015 812.449 157.285 810.273 156.528C807.406 155.531 805.715 151.274 805.715 151.274H803.689C803.689 151.274 801.582 155.62 798.118 156.124C796.549 156.352 794.954 156.338 793.56 155.72C789 153.699 789 147.637 789 147.637Z" fill="url(#paint39_linear)" stroke="#013B60"/>
<path d="M777.501 313.5C776.501 312.5 775.001 303.5 776.501 300C776.501 300 791.679 303.663 800.887 305.5C806.492 306.619 816.387 307.5 816.387 307.5C835.387 308.5 847.022 308.581 862.501 306.5L863.501 314C839.286 318.398 824.291 317.321 800.082 315.5L777.501 313.5Z" fill="#0F2E41"/>
<path d="M769 262C769.833 259.833 771.5 254.5 772 254C772 254 772.5 256 773.5 258.5C773.603 260.508 771 264.5 771 264.5L769 262Z" fill="url(#paint40_linear)"/>
<path d="M814.5 253C809.667 256 799.9 262 799.5 262H797.5L814.5 253Z" fill="url(#paint41_linear)"/>
<path d="M860 275C857.5 273.5 840 255 837 250L843.5 276C843.5 276 848.72 279.257 851.5 282C858.966 289.366 862.5 306.5 862.5 306.5C861.667 297.333 860.5 282 860 275Z" fill="url(#paint42_linear)"/>
<path d="M865 248.5L855.5 218L856.5 237.5L846.5 239.5L865 248.5Z" fill="url(#paint43_linear)"/>
<path d="M138 499.5L95.5 482L82.5 501.5L64 515V519L82.5 517.5L64 523V529L78.5 528L64 533.5V541L67.5 547L104 538L149 549.5L147.5 541C136.167 534 113.3 519.8 112.5 519C111.7 518.2 133.5 530.333 144.5 536.5V529C133 522.833 109.8 510.3 109 509.5C108.2 508.7 131.333 518.167 143 523L138 499.5Z" fill="#206B69"/>
<path d="M153 475C153 475.016 152.997 475.038 152.99 475.067L147.5 512L133 518.5C133 518.5 152.485 477.289 152.99 475.067L153 475Z" fill="url(#paint44_linear)"/>
<path d="M155.999 495C156.03 495.017 156.094 495.086 156.191 495.204L193.5 535L198 556.5C198 556.5 159.401 499.112 156.191 495.204L155.999 495Z" fill="url(#paint45_linear)"/>
<path d="M69.2308 550.5L76 512.5H73.4615L67.5385 542.583V506.167L65 503V564.5H67.5385L69.2308 550.5Z" fill="#0C3249"/>
<path d="M292.231 605.024L299 569.805H296.462L290.538 597.687V563.935L288 561V618H290.538L292.231 605.024Z" fill="#0C3249"/>
<path d="M74.3764 514.986C69.6231 514.632 65 507.172 65 507.172L78.2832 438.409C78.2832 438.409 90.6002 430.645 97.8173 433.721C102.784 435.837 107.194 443.879 107.194 443.879C110.61 459.595 110.048 468.788 97.8173 486.856C97.8173 486.856 103.866 488.454 105.631 491.544C108.359 496.322 105.061 501.181 100.943 504.828C96.3224 508.919 85.3155 507.172 85.3155 507.172C85.3155 507.172 79.6117 515.377 74.3764 514.986Z" fill="url(#paint46_linear)"/>
<path d="M296.95 571.988C292.413 571.668 288 564.936 288 564.936L300.679 502.881C300.679 502.881 312.437 495.875 319.326 498.65C324.066 500.56 328.276 507.818 328.276 507.818C331.537 522 331.001 530.297 319.326 546.602C319.326 546.602 325.1 548.044 326.784 550.833C329.388 555.144 326.24 559.53 322.309 562.821C317.899 566.513 307.392 564.936 307.392 564.936C307.392 564.936 301.948 572.34 296.95 571.988Z" fill="url(#paint47_linear)"/>
<path d="M29.5 494V483.5L68 456.5V470L29.5 494Z" fill="url(#paint48_linear)"/>
<path d="M33 471.5L34 465.5L67 437L68.5 442.5L33 471.5Z" fill="url(#paint49_linear)"/>
<path d="M78.4285 489.034C78.4285 489.034 86.0137 496 83 501C79.9863 506 73.7554 507.207 70.6397 507.207C69.0819 508.788 68.6435 511.236 62.0718 510.368C59.1363 509.98 45 504 45 504C34.2275 497.5 30.2192 487.559 29 477.5C27 461 47.2725 447.945 47.2725 447.945C47.2725 447.945 42.7861 441.19 52 433C56.5 429 60.0484 419.287 65 415.5C73.5 409 78.4285 405.803 79.9863 411.597C84.66 428.981 79.9863 455.846 79.9863 455.846C79.9863 455.846 86.7911 462.168 86.9965 472.44C87.2018 482.712 78.4285 489.034 78.4285 489.034Z" fill="#033847"/>
<path d="M302.039 548.263C302.039 548.263 309.084 554.653 306.285 559.24C303.486 563.827 297.698 564.934 294.804 564.934C293.357 566.384 292.95 568.63 286.846 567.834C284.12 567.478 270.99 561.992 270.99 561.992C260.984 556.029 257.261 546.91 256.129 537.682C254.271 522.546 273.101 510.569 273.101 510.569C273.101 510.569 268.351 486.066 273.101 475.776C276.961 467.41 282.506 461.851 288.293 462.003C296.883 462.229 301.225 468.919 303.486 477.226C307.827 493.173 303.486 517.818 303.486 517.818C303.486 517.818 309.806 523.617 309.997 533.04C310.187 542.463 302.039 548.263 302.039 548.263Z" fill="#033847"/>
<path d="M220.849 574.453C243.876 578.165 273.043 603.761 273.043 603.761L229.587 611.678L-50.5132 613.121L-50.7159 592.555C-41.2413 590.062 -32.3967 586.661 -20.2569 585.056C5.11443 581.704 44.9446 591.612 44.9446 591.612C44.9446 591.612 83.9916 571.996 110.9 571.423C133.269 570.947 166.993 583.211 166.993 583.211C166.993 583.211 199.811 571.061 220.849 574.453Z" fill="url(#paint50_linear)"/>
<path d="M164.339 598.912C177.648 600.878 180.362 609.252 182.437 612.378L136.483 612.378C136.483 612.378 151.029 596.946 164.339 598.912Z" fill="url(#paint51_linear)"/>
<path d="M277.278 592.4C289.595 594.101 291.7 609.103 292.795 617.405L236.098 619.854L172.239 617.405C172.239 617.405 185.159 604.068 192.658 601.67C197.947 599.978 201.758 599.501 209.885 601.5C218.013 603.499 225.594 611.737 227.216 611.721C228.837 611.705 234.248 605.417 239.294 603.289C244.341 601.161 256.986 599.561 256.986 599.561C261.164 595.981 267.799 591.09 277.278 592.4Z" fill="url(#paint52_linear)"/>
<path d="M369.813 592.863C377.004 594.83 406.499 626 406.499 626L235.81 620.032L283.495 604.745C288.93 603.003 294.234 600.904 299.499 598.7C308.029 595.131 321.674 589.901 330.904 588.748C344.057 587.103 362.622 590.896 369.813 592.863Z" fill="url(#paint53_linear)"/>
<path d="M68.8489 247.304C64.9604 247.431 61.2589 245.519 57.3705 245.647C57.5822 246.745 60.1435 250.577 63.379 252.003L70.4472 250.867C70.4472 250.867 73.9011 251.62 75.3968 251.734C77.939 251.926 91.3224 250.482 91.3224 250.482C91.3224 250.482 77.1109 251.175 73.7406 250.231C70.3703 249.287 68.8489 247.304 68.8489 247.304Z" fill="url(#paint54_linear)"/>
<path d="M41.0413 417.255L60.8453 422.459C60.8453 422.459 63.6546 413.97 66.7353 410.173C70.2153 405.884 75.9453 402.969 78.3965 400.252C91.9594 385.217 81.0825 364.658 64.6688 361.619C55.5193 359.924 45.0861 364.162 40.6663 372.007C36.7565 378.946 37.1484 389.585 39.6831 396.411C42.2178 403.237 41.0413 417.255 41.0413 417.255Z" fill="url(#paint55_linear)"/>
<path d="M63.9733 374.705C65.6104 372.521 68.8969 367.99 68.9459 367.329C79.7867 377.994 81.2169 384.245 77.4842 395.759L69.9199 395.198C69.9199 395.198 70.2561 392.604 70.2364 390.934C70.1563 384.141 63.9733 374.705 63.9733 374.705Z" fill="url(#paint56_linear)"/>
<path d="M40.7742 432.032L52.5659 435.258L55.3029 433.945L59.5005 421.944L41.5663 417.432L39.0882 427.828L39.3378 428.393L40.7742 432.032Z" fill="url(#paint57_linear)"/>
<path d="M56.671 430.226L39.0137 427.807L38.9258 428.991L40.6847 432.314L52.4677 435.372L55.3031 433.945L43.2656 430.143L56.0072 431.814L56.671 430.226Z" fill="url(#paint58_linear)"/>
<path d="M57.3716 428.093L39.4958 426.221L39.8095 424.493L58.0841 425.849L57.3716 428.093Z" fill="url(#paint59_linear)"/>
<path d="M58.7395 424.374L40.2796 423.004L40.6604 421.237L59.4149 422.629L58.7395 424.374Z" fill="url(#paint60_linear)"/>
<path d="M59.4781 422.245L41.1084 419.244L41.2695 417.072L60.0934 420.882L59.4781 422.245Z" fill="url(#paint61_linear)"/>
<rect x="36.2539" y="330.17" width="5.44408" height="21.7763" rx="2.72204" transform="rotate(-10.1944 36.2539 330.17)" fill="url(#paint62_linear)"/>
<rect x="10.6816" y="351.092" width="5.44407" height="21.7763" rx="2.72204" transform="rotate(-51.8078 10.6816 351.092)" fill="url(#paint63_linear)"/>
<rect x="6.40527" y="385.062" width="5.44408" height="21.7763" rx="2.72204" transform="rotate(-90.2482 6.40527 385.062)" fill="url(#paint64_linear)"/>
<rect x="67.1592" y="325.646" width="5.44408" height="21.7763" rx="2.72204" transform="rotate(4.22067 67.1592 325.646)" fill="url(#paint65_linear)"/>
<rect x="102.072" y="338.871" width="5.44408" height="21.7763" rx="2.72204" transform="rotate(45.4698 102.072 338.871)" fill="url(#paint66_linear)"/>
<rect x="117.49" y="373.052" width="5.44408" height="21.7763" rx="2.72204" transform="rotate(79.2446 117.49 373.052)" fill="url(#paint67_linear)"/>
<rect x="112.441" y="401.256" width="5.44408" height="21.7763" rx="2.72204" transform="rotate(109.245 112.441 401.256)" fill="url(#paint68_linear)"/>
<path d="M1362.5 577.707C1327.58 578.504 1312.11 586.951 1291.5 617.207L1289 690.207L1359.5 634C1364.41 613.966 1365.09 602.265 1362.5 577.707Z" fill="url(#paint69_linear)"/>
<path d="M1364 573.208L1358.5 582.708L1367.5 586.208C1367.5 586.208 1367.79 583.138 1367.5 581.208C1366.99 577.835 1364 573.208 1364 573.208Z" fill="#E7F3FC"/>
<path d="M1369.5 568.207C1366.5 566.707 1363.5 570.707 1363.5 570.707L1362 573.207C1362 573.207 1366.66 577.871 1367 581.707C1367.16 583.469 1366.5 586.207 1366.5 586.207L1368.5 593.707C1368.5 593.707 1374 597.208 1376.5 593.208C1377.44 591.708 1376.88 589.424 1376.5 587.707C1375.55 583.392 1368.5 581.207 1368.5 581.207C1368.5 581.207 1371.78 578.946 1372.5 576.707C1373.58 573.356 1372.65 569.782 1369.5 568.207Z" fill="url(#paint70_linear)"/>
<path d="M1361.5 565.707C1354.5 563.497 1349.09 577.565 1352 585.707C1354.5 592.708 1369.1 600.385 1371 592.707C1372.59 586.268 1360 581.707 1360 581.707C1360 581.707 1368.5 567.918 1361.5 565.707Z" fill="url(#paint71_linear)"/>
<path d="M1347.5 563.708C1350.5 576.208 1320 585.207 1320 585.207C1320 585.207 1331 557.708 1343.5 560.208C1346 560.707 1346.91 561.232 1347.5 563.708Z" fill="url(#paint72_linear)"/>
<path d="M1314.51 544.707C1304.5 560.208 1318.5 586.207 1318.5 586.207C1318.5 586.207 1330.21 557.108 1324.5 545.707C1322.5 541.707 1316.24 542.017 1314.51 544.707Z" fill="url(#paint73_linear)"/>
<path d="M1295 678.708C1300.88 665.965 1303.74 658.579 1308 645.208C1315.49 621.672 1311.38 606.163 1320.5 583.208C1325.53 570.546 1335 551 1335 551" stroke="#033750" stroke-width="2"/>
<path d="M1340 585.208C1352 595.207 1306 653.208 1306 653.208L1314.5 621.708C1314.5 621.708 1328 575.208 1340 585.208Z" fill="#033750"/>
<path d="M1339 527.708C1341 531.708 1340.7 535.408 1341.5 536.208C1341.5 536.208 1347.86 531.708 1352.5 531.708C1355 531.708 1354.73 548.217 1347 551.708C1342.91 553.557 1339.56 553.636 1335.5 551.708C1334.5 551.232 1330.5 549.707 1329 543.708C1327.5 537.708 1337 523.707 1339 527.708Z" fill="url(#paint74_linear)"/>
<path d="M1342 620.036C1318.5 641.038 1307 685.536 1307 685.536L1315.5 685.536C1315.5 685.536 1323.7 658.577 1353.5 634.037C1370.5 620.036 1385.53 618.468 1381.5 607.536C1378 598.037 1353.74 609.546 1342 620.036Z" fill="#50739A"/>
<path d="M1315 676.5C1341.94 645.485 1358.93 631.631 1393 614L1389 626.5C1358.43 638.383 1342.56 650.874 1315 676.5Z" fill="url(#paint75_linear)"/>
<path d="M1307.29 703.038C1303.17 712.43 1300.53 739.962 1302.29 747L1350.29 765.5C1356.89 760.29 1364.96 742.257 1368.03 734.5L1355.29 719.038L1370.29 730C1374.53 724 1381.53 712.5 1381.53 704.5L1370.29 690.538L1381.53 700C1385.53 690 1387.29 681.5 1385.79 668.5L1372.79 664.538H1385.79C1387.35 655.979 1384.63 649.175 1383.03 637C1367.67 640.064 1362.91 642.366 1350.29 648.038L1355.29 657.538L1343.03 653C1334.53 655 1328.6 662.496 1322.79 670.038L1338.29 678.038L1318.03 674.5C1313.03 680 1308.29 689.538 1308.29 696.538L1326.53 700L1307.29 703.038Z" fill="url(#paint76_linear)"/>
<path d="M1346 548.5C1342.42 551.34 1334.5 551 1334.5 551C1334.5 551 1340.5 555.5 1347.5 551C1353.32 547.258 1353.5 535.5 1353.5 535.5C1353.5 535.5 1350.79 544.702 1346 548.5Z" fill="url(#paint77_linear)"/>
<path d="M1357 589C1354.23 586.627 1352 579.5 1352 579.5C1352 579.5 1351.18 585.944 1356 590.5C1364.12 598.172 1369.5 594 1369.5 594C1369.5 594 1364 595.007 1357 589Z" fill="url(#paint78_linear)"/>
<path d="M1333 534C1334.8 530.395 1337.5 528 1337.5 528C1337.5 528 1336 528.215 1333.5 531.5C1324 544 1334.5 550 1334.5 550C1334.5 550 1327.75 544.5 1333 534Z" fill="url(#paint79_linear)"/>
<path d="M45 501.5C48 499.291 51 500.5 51 500.5C51 500.5 47.7908 498.139 45 500C40.5 503 40 513.5 40 513.5C40 513.5 42 503.709 45 501.5Z" fill="url(#paint80_linear)"/>
<path d="M1357 568.5C1360 566.291 1363 567.5 1363 567.5C1363 567.5 1359.79 565.139 1357 567C1352.5 570 1352 580.5 1352 580.5C1352 580.5 1354 570.709 1357 568.5Z" fill="url(#paint81_linear)"/>
<path d="M88.5 559.5L106 543C122.825 541.499 128.104 544.094 138.5 547H120L88.5 559.5Z" fill="url(#paint82_linear)"/>
<circle r="67" transform="matrix(-1 0 0 1 1267 609.531)" fill="url(#paint83_linear)"/>
<circle r="57.0867" transform="matrix(-1 0 0 1 1266.66 611.24)" fill="#015681"/>
<circle r="53.6684" transform="matrix(-1 0 0 1 1266.66 609.189)" fill="#E1EAEC"/>
<rect width="5.83428" height="12.1874" transform="matrix(-0.855626 -0.517594 -0.517594 0.855626 1311.69 546.918)" fill="#DCE9E4"/>
<rect width="21.9179" height="9.36613" transform="matrix(-0.855626 -0.517594 -0.517594 0.855626 1323.06 542.936)" fill="url(#paint84_linear)"/>
<rect x="1207.85" y="543.62" width="21.9179" height="9.36613" transform="rotate(-31.171 1207.85 543.62)" fill="url(#paint85_linear)"/>
<rect width="6.20221" height="12.1874" transform="matrix(-0.866025 0.5 0.5 0.866025 1224.99 543.714)" fill="#E1EAE5"/>
<rect width="8.88776" height="19.1429" transform="matrix(-1 0 0 1 1271.1 524.755)" fill="#E6ECE6"/>
<rect width="24.6122" height="16.4082" transform="matrix(-1 0 0 1 1278.62 508.347)" fill="#4AB6BC"/>
<path d="M1274.52 563.04C1272.93 570.219 1269.73 585.259 1269.73 587.994C1269.73 587.994 1251.08 589.712 1245.12 598.249C1242.05 602.645 1240.68 611.239 1240.68 611.239H1217.43C1217.43 611.239 1217.78 594.148 1231.11 578.082C1244.44 562.015 1274.52 563.04 1274.52 563.04Z" fill="url(#paint86_linear)"/>
<path d="M1315.33 614.475C1307.99 614.158 1292.63 613.347 1289.99 612.639C1289.99 612.639 1283.5 630.21 1273.71 633.758C1268.67 635.585 1260.02 634.689 1260.02 634.689L1254 657.142C1254 657.142 1270.6 661.235 1289.57 652.516C1308.54 643.797 1315.33 614.475 1315.33 614.475Z" fill="url(#paint87_linear)"/>
<circle r="25.5561" transform="matrix(-1 0 0 1 1265.29 510.056)" stroke="url(#paint88_linear)" stroke-width="7"/>
<rect width="2.05102" height="6.83673" transform="matrix(-1 0 0 1 1267 557.571)" fill="#015681"/>
<rect width="2.05102" height="6.83673" transform="matrix(-0.927645 0.373464 0.373464 0.927645 1240.83 564.327)" fill="#015681"/>
<rect x="1291.03" y="565.776" width="2.05102" height="6.83673" transform="rotate(21.9294 1291.03 565.776)" fill="#015681"/>
<rect width="2.05102" height="6.83673" transform="matrix(-0.5 0.866025 0.866025 0.5 1220.62 584.508)" fill="#015681"/>
<rect x="1311.24" y="585.956" width="2.05102" height="6.83673" transform="rotate(60 1311.24 585.956)" fill="#015681"/>
<rect width="2.05102" height="6.83673" transform="matrix(0.0395909 0.999216 0.999216 -0.0395909 1213.59 607.788)" fill="#015681"/>
<rect x="1318.28" y="609.237" width="2.05102" height="6.83673" transform="rotate(92.269 1318.28 609.237)" fill="#015681"/>
<rect width="2.05102" height="6.83673" transform="matrix(0.498013 0.86717 0.86717 -0.498013 1219.03 627.976)" fill="#015681"/>
<rect width="3.30382" height="13.5879" rx="1.65191" transform="matrix(-0.802711 0.596368 0.596368 0.802711 1256.16 591.071)" fill="#015681"/>
<rect width="2.05102" height="6.83673" transform="matrix(0.787571 0.616224 0.616224 -0.787571 1237.24 647.731)" fill="#015681"/>
<circle r="2.73469" transform="matrix(-1 0 0 1 1266.32 608.163)" fill="#155F89"/>
<rect width="2.78197" height="39.6531" rx="1.39098" transform="matrix(-0.879067 -0.476697 -0.476697 0.879067 1264.27 612.224)" fill="#EA6C7E"/>
<path d="M1148.98 581.707C1183.9 582.504 1234 595.5 1263 682L1222.48 694.207L1151.98 638.707C1147.07 618.673 1146.39 606.265 1148.98 581.707Z" fill="url(#paint89_linear)"/>
<path d="M1147.48 577.208L1152.98 586.708L1143.98 590.208C1143.98 590.208 1143.69 587.138 1143.98 585.208C1144.49 581.835 1147.48 577.208 1147.48 577.208Z" fill="#E7F3FC"/>
<path d="M1141.98 572.207C1144.98 570.707 1147.98 574.707 1147.98 574.707L1149.48 577.207C1149.48 577.207 1144.82 581.871 1144.48 585.707C1144.33 587.469 1144.98 590.207 1144.98 590.207L1142.98 597.707C1142.98 597.707 1137.48 601.208 1134.98 597.208C1134.05 595.708 1134.61 593.424 1134.98 591.707C1135.93 587.392 1142.98 585.207 1142.98 585.207C1142.98 585.207 1139.7 582.946 1138.98 580.707C1137.91 577.356 1138.84 573.782 1141.98 572.207Z" fill="url(#paint90_linear)"/>
<path d="M1188.48 610.961C1178.34 601.866 1158.98 590 1158.98 590" stroke="#033750" stroke-width="2"/>
<path d="M1149.99 569.707C1156.99 567.497 1162.39 581.565 1159.49 589.707C1156.99 596.708 1142.38 604.385 1140.49 596.707C1138.9 590.268 1151.49 585.707 1151.49 585.707C1151.49 585.707 1142.99 571.918 1149.99 569.707Z" fill="url(#paint91_linear)"/>
<path d="M1163.98 567.708C1160.98 580.208 1191.48 589.207 1191.48 589.207C1191.48 589.207 1180.48 561.708 1167.98 564.208C1165.49 564.707 1164.58 565.232 1163.98 567.708Z" fill="url(#paint92_linear)"/>
<path d="M1196.98 548.707C1206.98 564.208 1192.98 590.207 1192.98 590.207C1192.98 590.207 1181.28 561.108 1186.98 549.707C1188.98 545.707 1195.24 546.017 1196.98 548.707Z" fill="url(#paint93_linear)"/>
<path d="M1216.48 682.708C1210.61 669.965 1207.74 662.579 1203.48 649.208C1195.99 625.672 1200.1 610.163 1190.98 587.208C1185.96 574.546 1176.48 555 1176.48 555" stroke="#033750" stroke-width="2"/>
<path d="M1171.48 589.208C1159.48 599.207 1205.48 657.208 1205.48 657.208L1196.98 625.708C1196.98 625.708 1183.48 579.208 1171.48 589.208Z" fill="#033750"/>
<path d="M1172.48 531.708C1170.48 535.708 1170.78 539.408 1169.98 540.208C1169.98 540.208 1163.63 535.708 1158.98 535.708C1156.48 535.708 1156.76 552.217 1164.48 555.708C1168.58 557.557 1171.93 557.636 1175.98 555.708C1176.98 555.232 1180.99 553.707 1182.48 547.708C1183.98 541.708 1174.48 527.707 1172.48 531.708Z" fill="url(#paint94_linear)"/>
<path d="M1169.48 624.036C1192.98 645.038 1204.48 689.536 1204.48 689.536L1195.98 689.536C1195.98 689.536 1187.78 662.577 1157.98 638.037C1140.98 624.036 1125.96 622.468 1129.98 611.536C1133.48 602.037 1157.75 613.546 1169.48 624.036Z" fill="#50739A"/>
<path d="M1106.2 610.6C1152.4 626.303 1178.2 651.6 1199.7 679.6V714.1C1199.7 714.1 1141.2 675.811 1117.2 679.6C1093.2 683.39 1075.11 680.721 1052.7 673.6L1060.7 666.6L1047.2 669.1C1043.2 666.6 1030.25 654.981 1032.2 639.1C1035.7 610.6 1075.7 608.6 1099.2 610.6L1110.2 624.1L1106.2 610.6Z" fill="url(#paint95_linear)"/>
<path d="M1196.48 680.5C1169.54 649.485 1152.55 635.631 1118.48 618L1122.48 630.5C1153.06 642.383 1168.92 654.874 1196.48 680.5Z" fill="url(#paint96_linear)"/>
<path d="M1204.2 707.038C1208.31 716.43 1210.96 743.962 1209.2 751L1161.2 769.5C1154.59 764.29 1146.52 746.257 1143.46 738.5L1156.2 723.038L1141.2 734C1136.96 728 1129.96 716.5 1129.96 708.5L1141.2 694.538L1129.96 704C1125.96 694 1124.2 685.5 1125.7 672.5L1138.7 668.538H1125.7C1124.14 659.979 1126.85 653.175 1128.46 641C1143.82 644.064 1148.57 646.366 1161.2 652.038L1156.2 661.538L1168.46 657C1176.96 659 1182.88 666.496 1188.7 674.038L1173.2 682.038L1193.46 678.5C1198.46 684 1203.2 693.538 1203.2 700.538L1184.96 704L1204.2 707.038Z" fill="url(#paint97_linear)"/>
<path d="M1165.48 552.5C1169.07 555.34 1176.98 555 1176.98 555C1176.98 555 1170.98 559.5 1163.98 555C1158.16 551.258 1157.98 539.5 1157.98 539.5C1157.98 539.5 1160.7 548.702 1165.48 552.5Z" fill="url(#paint98_linear)"/>
<path d="M1154.48 593C1157.25 590.627 1159.48 583.5 1159.48 583.5C1159.48 583.5 1160.31 589.944 1155.48 594.5C1147.36 602.172 1141.98 598 1141.98 598C1141.98 598 1147.48 599.007 1154.48 593Z" fill="url(#paint99_linear)"/>
<path d="M1143.98 574C1142.37 573.353 1139.98 574.5 1139.98 574.5C1139.98 574.5 1141.87 571.754 1144.98 573C1147.48 574 1147.48 579 1147.48 579C1147.48 579 1146.48 575 1143.98 574Z" fill="url(#paint100_linear)"/>
<path d="M1178.49 538C1176.68 534.395 1173.98 532 1173.98 532C1173.98 532 1175.49 532.215 1177.98 535.5C1187.48 548 1176.99 554 1176.99 554C1176.99 554 1183.74 548.5 1178.49 538Z" fill="url(#paint101_linear)"/>
<path d="M1154.48 572.5C1151.48 570.291 1148.48 571.5 1148.48 571.5C1148.48 571.5 1151.69 569.139 1154.48 571C1158.98 574 1159.48 584.5 1159.48 584.5C1159.48 584.5 1157.48 574.709 1154.48 572.5Z" fill="url(#paint102_linear)"/>
<path d="M1110.98 630.5L1093.48 614C1076.66 612.499 1071.38 615.094 1060.98 618H1079.48L1110.98 630.5Z" fill="url(#paint103_linear)"/>
<path d="M1135.99 649.5C1158.48 675 1192.49 741.5 1192.48 746.5H1186.98C1178.99 715.476 1158.73 686.002 1135.99 649.5Z" fill="#50739A"/>
<path d="M1375.5 645.5C1353 671 1319 737.5 1319 742.5H1324.5C1332.5 711.476 1352.76 682.002 1375.5 645.5Z" fill="#50739A"/>
<path d="M1073.72 370.115L1081.96 369.146L1057.4 399.809L1040.4 392.083L1017.22 417.964L1026.11 419.51L1041.94 401.354L1058.55 409.08L1091.4 368.036L1098.34 369.868L1096.59 355L1073.72 370.115Z" fill="url(#paint104_linear)"/>
<path d="M1139.92 216.274L830.126 651.227L842.632 666.888L1152.05 214.201L1161.14 216.1L1157.88 197L1129.34 218.083L1139.92 216.274Z" fill="url(#paint105_linear)"/>
<path d="M1186.21 205.915L1179.22 381.66H906.802L919.096 205.915H1186.21Z" fill="white"/>
<path d="M1053.49 311.054L1050.57 245.862H1051.74L1054.95 309.88H1135.57V311.054H1053.49Z" fill="#EB939F"/>
<path d="M1078 501.5L1065.93 388.645H1074.94L1087.5 501.5H1078Z" fill="#013B60"/>
<path d="M988.501 501L1006.63 389.275H997.616L978.501 501H988.501Z" fill="#013B60"/>
<path d="M1189 201.444V208.43H915.744V201.444H1189Z" fill="#4AB6BC"/>
<path d="M1184.87 381.848V389.275H901V381.848H1184.87Z" fill="#013B60"/>
<path d="M1039.5 508L1042.11 389.275L1030.97 388.862L1027 508H1039.5Z" fill="#013B60"/>
<path d="M972.794 201.539H1130.82C1131.26 206.385 1129.34 212.62 1127.81 212.62C1126.28 212.62 1090.31 212.182 1054.9 212.62C1015.83 213.105 982.521 212.62 978.331 212.62C974.14 212.62 971.29 205.554 972.794 201.539Z" fill="#013B60"/>
<rect width="38.7851" height="4.95129" transform="matrix(-1 0 0 1 1071.82 197)" fill="#063145"/>
<circle r="2.23523" transform="matrix(-1 0 0 1 1116.36 207.591)" fill="#C4C4C4"/>
<circle r="2.23523" transform="matrix(-1 0 0 1 986.711 207.591)" fill="#C4C4C4"/>
<path d="M1069.55 261.542H1083.49L1086.05 310.229H1071.83L1069.55 261.542Z" fill="#E1586E"/>
<path d="M1089.35 275.57H1102.13L1104.21 310.229H1090.84L1089.35 275.57Z" fill="#50729B"/>
<circle cx="985.571" cy="277.045" r="33.249" fill="url(#paint106_linear)"/>
<path d="M1018.54 276.766C1018.54 295.129 1003.66 310.015 985.293 310.015C985.293 310.015 985.293 295.129 985.293 276.766C1003.66 276.766 1018.54 276.766 1018.54 276.766Z" fill="#E1586E"/>
<rect x="985.293" y="228.149" width="6.14687" height="6.14687" fill="#50729B"/>
<rect x="994.789" y="228.149" width="6.14687" height="6.14687" fill="#50729B"/>
<rect x="927" y="231" width="10" height="6" fill="#50729B"/>
<rect x="973" y="251" width="12" height="4" fill="#50729B"/>
<rect x="981.25" y="297.851" width="14.0287" height="4.12607" fill="#50729B"/>
<rect x="1043" y="318" width="14.0287" height="4.12607" fill="#50729B"/>
<rect x="1114.03" y="228" width="11" height="6" fill="#F4DADE"/>
<rect x="1037.03" y="228" width="48" height="6" fill="#E19CA8"/>
<rect x="926.783" y="334.986" width="236.837" height="14.0287" fill="#EDB7BC"/>
<rect x="1144.03" y="228" width="11" height="6" fill="#F4DADE"/>
<path d="M1138.03 253H1161.03V256H1138.03V253Z" fill="#F4DADE"/>
<path d="M926.107 310.899L949.097 310.217L949.186 313.215L926.196 313.897L926.107 310.899Z" fill="#F4DADE"/>
<rect x="964.746" y="264.017" width="14.8539" height="2.47564" fill="#E1586E"/>
<rect x="993.629" y="284.648" width="14.8539" height="2.47564" fill="white"/>
<rect x="1138.03" y="259" width="23" height="3" fill="#50729B"/>
<rect x="926.283" y="316.896" width="23" height="3" transform="rotate(-1.69932 926.283 316.896)" fill="#50729B"/>
<rect x="964.746" y="268.143" width="14.8539" height="1.65043" fill="white"/>
<rect x="993.629" y="288.774" width="14.8539" height="1.65043" fill="white"/>
<rect x="1150.03" y="265" width="11" height="4" fill="#50729B"/>
<path d="M1179.67 371.12L1179.35 381.848H906.776L907.405 371.12H1179.67Z" fill="#4AB6BC"/>
<path d="M1180.09 360.393L1179.69 371.12H907.444L908.203 360.393H1180.09Z" fill="#B7DCDA"/>
<path d="M935 234H943.874L960.455 253H974" stroke="#50729B" stroke-width="2"/>
<path d="M1035.1 519.247C1035.1 517.596 1039.14 395.472 1038.81 389.201H1042.11L1039.64 515.946L1035.1 519.247Z" fill="url(#paint107_linear)"/>
<path d="M1087.5 502C1087.36 500.351 1075.5 395.553 1075.12 389.275L1073.88 389.275L1086 502L1087.5 502Z" fill="url(#paint108_linear)"/>
<path d="M988.499 501C988.781 499.369 1005.8 395.464 1006.63 389.275L1005.39 389.275L986.999 501L988.499 501Z" fill="url(#paint109_linear)"/>
<path d="M1177.86 381.848L1186.11 208.553L1181.99 381.848H1177.86Z" fill="url(#paint110_linear)"/>
<path d="M992.391 299.956H1009.32H1016.31L1037.54 319.794H1045.64" stroke="#50729B" stroke-width="2"/>
<path d="M818 177C813 179.5 805 178 805 178C805 178 813 187 819.5 185C826.334 182.897 831.5 172.5 831.5 172.5C830.739 170.41 829.87 168.302 829.5 166.5C826.5 171.5 823 174.5 818 177Z" fill="url(#paint111_linear)"/>
<path d="M838 195.5L840 181L872 195.5L842.5 186L838 195.5Z" fill="url(#paint112_linear)"/>
<path d="M801 195L799 183L770.5 196L797 189.5L801 195Z" fill="url(#paint113_linear)"/>
<path d="M774 243.5C772.978 242.167 771.5 241.5 771.5 241.5C771.5 241.5 773 241.5 775.5 244C776.81 245.31 777 248 777 248C777 248 779.948 251.766 782.5 252.5C784.339 253.029 788 252.5 788 252.5C788 252.5 785.359 255.009 783 255C778.231 254.982 775.5 249 775.5 249C775.5 249 775.24 245.118 774 243.5Z" fill="url(#paint114_linear)"/>
<path d="M833 152.5C833.015 154.342 830.5 156.5 830.5 156.5V152.5C831.612 150.276 831.987 150.083 832.5 150.5C832.5 150.5 832.985 150.658 833 152.5Z" fill="url(#paint115_linear)"/>
<path d="M778.5 339.5L777.5 312.5C777.5 312.5 792.281 388.316 805 436.5C811.216 460.047 822 496.5 822 496.5H811.5L795.5 425L778.5 339.5Z" fill="url(#paint116_linear)"/>
<path d="M773.5 231L782 213.5L784.5 233.5L773.5 231Z" fill="url(#paint117_linear)"/>
<path d="M90.2683 504.229C34.8538 513.776 12.2112 530.895 -13.4332 583.963L-0.1088 700.806L99.0034 595.711C102.076 562.643 100.222 542.722 90.2683 504.229Z" fill="url(#paint118_linear)"/>
<path d="M91.5887 496.708L85.0822 513.14L100.244 516.58C100.244 516.58 99.9794 511.624 99.0588 508.618C97.451 503.368 91.5887 496.708 91.5887 496.708Z" fill="#E7F3FC"/>
<path d="M99.1639 487.442C94.031 485.764 90.2018 492.845 90.2018 492.845L88.4057 497.182C88.4057 497.182 96.9357 503.503 98.3831 509.533C99.0476 512.301 98.6536 516.817 98.6536 516.817L103.617 528.287C103.617 528.287 113.205 532.557 116.238 525.594C117.375 522.983 115.941 519.48 114.934 516.835C112.402 510.188 100.653 508.381 100.653 508.381C100.653 508.381 105.343 504.002 105.956 500.266C106.875 494.674 104.551 489.202 99.1639 487.442Z" fill="url(#paint119_linear)"/>
<path d="M34.3 560.179C48.2955 543.29 76.3085 519.805 76.3085 519.805" stroke="#033750" stroke-width="2"/>
<path d="M85.8291 485.358C74.1583 483.497 68.8794 507.181 75.4418 519.459C81.0833 530.014 106.161 538.777 107.358 526.102C108.363 515.47 87.234 511.193 87.234 511.193C87.234 511.193 97.4999 487.218 85.8291 485.358Z" fill="url(#paint120_linear)"/>
<path d="M63.0621 485.491C70.8028 504.686 24.3659 526.248 24.3659 526.248C24.3659 526.248 35.364 479.848 55.8625 480.866C59.9564 481.069 61.5291 481.69 63.0621 485.491Z" fill="url(#paint121_linear)"/>
<path d="M6.01719 463.055C-6.23946 490.11 22.2212 528.195 22.2212 528.195C22.2212 528.195 33.9615 479.081 22.1777 462.277C18.0433 456.381 8.14401 458.36 6.01719 463.055Z" fill="url(#paint122_linear)"/>
<path d="M6.71996 681.071C13.0587 659.385 15.8718 646.945 19.4805 624.641C25.8322 585.385 15.6121 561.662 24.6885 522.945C29.6948 501.59 40.1441 468.218 40.1441 468.218" stroke="#033750" stroke-width="2"/>
<path d="M56.2168 521.507C77.6986 534.587 18.1918 637.855 18.1918 637.855L24.2613 585.677C24.2613 585.677 34.7351 508.427 56.2168 521.507Z" fill="#033750"/>
<path d="M38.2455 422.143C42.379 428.039 42.7776 434.002 44.2412 435.087C44.2412 435.087 53.3004 426.413 60.6916 425.313C64.6727 424.72 68.1496 451.076 56.6742 458.466C50.5951 462.381 45.2765 463.302 38.3604 461.192C36.6548 460.672 29.9223 459.192 26.1117 449.994C22.301 440.795 34.1119 416.247 38.2455 422.143Z" fill="url(#paint123_linear)"/>
<path d="M81.0249 562.786C44.2008 602.247 21.9989 676.5 21.9989 676.5L45.9826 678.606C45.9826 678.606 55.7944 631.355 102.809 584.882C129.632 558.368 155.02 553.363 146.455 535.343C139.013 519.685 99.4185 543.075 81.0249 562.786Z" fill="#50739A"/>
<path d="M105.597 556.849C61.1744 603.337 46.4362 648.608 38.3677 694.422L59.3801 734.735C59.3801 734.735 104.416 654.364 134.768 644.174C165.12 633.985 184.636 619.847 206.482 597.879L192.87 594.572L210.168 589.271C213.319 583.914 221.375 562.449 209.423 545.08C187.975 513.91 140.018 535.936 113.776 552.585L109.145 575.06L105.597 556.849Z" fill="#015681"/>
<path d="M42.6735 693.515C55.2666 640.864 66.6795 614.329 95.7498 572.978L98.6891 590.02C70.2019 622.526 59.2727 646.784 42.6735 693.515Z" fill="url(#paint124_linear)"/>
<path d="M105.715 658.857C100.636 671.379 98.1541 707.74 100.728 716.946L164.626 739.569C173.141 732.466 183.112 708.42 186.865 698.091L169.522 678.188L189.678 692.082C195.045 684.025 203.848 668.622 203.557 658.085L188.244 640.102L203.393 652.157C208.299 638.84 210.307 627.58 207.859 610.511L190.591 605.764L207.715 605.292C209.462 593.962 205.638 585.098 203.079 569.12C182.959 573.713 176.777 576.919 160.355 584.849L167.286 597.18L150.973 591.649C139.849 594.592 132.316 604.682 124.932 614.827L145.639 624.801L118.825 620.877C112.439 628.304 106.541 641.039 106.796 650.259L130.948 654.157L105.715 658.857Z" fill="url(#paint125_linear)"/>
<path d="M54.4883 453.324C50.6121 457.464 40.8317 458.493 40.8317 458.493C40.8317 458.493 49.0173 462.92 56.7859 456.118C63.2461 450.462 61.3177 436 61.3177 436C61.3177 436 59.672 447.788 54.4883 453.324Z" fill="url(#paint126_linear)"/>
<path d="M81.4402 515.482C76.4739 512.359 71.2261 501.539 71.2261 501.539C71.2261 501.539 71.4438 511.997 80.2033 518.108C94.9547 528.4 102.531 520.482 102.531 520.482C102.531 520.482 94.0114 523.389 81.4402 515.482Z" fill="url(#paint127_linear)"/>
<path d="M96.4057 490.77C98.8267 489.357 102.894 490.618 102.894 490.618C102.894 490.618 99.2402 486.693 94.5762 489.415C90.8321 491.6 92.0174 499.562 92.0174 499.562C92.0174 499.562 92.6616 492.955 96.4057 490.77Z" fill="url(#paint128_linear)"/>
<path d="M31.8708 436.141C33.6349 430.745 36.8956 426.85 36.8956 426.85C36.8956 426.85 34.8451 427.462 32.0493 432.554C21.4093 451.936 37.2783 458.116 37.2783 458.116C37.2783 458.116 26.7334 451.855 31.8708 436.141Z" fill="url(#paint129_linear)"/>
<path d="M1135.71 286.454C1130.79 288.21 1125.36 287.088 1120.44 288.844C1121.11 290.265 1125.79 294.488 1130.44 295.131L1139.05 290.698C1139.05 290.698 1143.74 290.329 1145.69 289.877C1149.01 289.109 1165.58 281.686 1165.58 281.686C1165.58 281.686 1147.68 288.414 1143.03 288.487C1138.38 288.56 1135.71 286.454 1135.71 286.454Z" fill="url(#paint130_linear)"/>
<path d="M1160.35 161.475L1187.55 160.573C1187.55 160.573 1188.03 147.773 1190.58 141.306C1193.46 134.001 1199.71 127.668 1201.85 122.94C1213.67 96.7782 1192.26 72.9624 1170.18 75.4585C1157.87 76.8498 1146.09 86.9107 1143.32 99.4808C1140.86 110.6 1145.25 125.053 1150.99 133.398C1156.72 141.743 1160.35 161.475 1160.35 161.475Z" fill="url(#paint131_linear)"/>
<path d="M1174.07 93.7142C1175.37 90.0502 1177.91 82.4905 1177.73 81.5639C1195.48 91.8056 1199.59 99.8098 1199.04 117.141L1189.17 119.444C1189.17 119.444 1188.65 115.744 1188.01 113.46C1185.42 104.162 1174.07 93.7142 1174.07 93.7142Z" fill="url(#paint132_linear)"/>
<path d="M1165.41 181.879L1181.66 181.517L1184.67 178.601L1185.64 160.412L1161.09 161.504L1161.72 176.79L1162.25 177.464L1165.41 181.879Z" fill="url(#paint133_linear)"/>
<path d="M1185.06 172.937L1161.62 176.792L1161.94 178.454L1165.4 182.303L1181.57 181.714L1184.67 178.602L1167.91 178.272L1184.79 175.388L1185.06 172.937Z" fill="url(#paint134_linear)"/>
<path d="M1185.18 169.723L1161.66 174.417L1161.43 171.916L1185.27 166.352L1185.18 169.723Z" fill="url(#paint135_linear)"/>
<path d="M1185.56 164.059L1161.48 169.679L1161.32 167.099L1185.79 161.388L1185.56 164.059Z" fill="url(#paint136_linear)"/>
<path d="M1185.72 160.835L1161.16 164.179L1160.57 161.131L1186.01 158.713L1185.72 160.835Z" fill="url(#paint137_linear)"/>
<rect width="7.30425" height="30.9269" rx="3.65212" transform="matrix(0.888787 -0.479314 0.412735 0.901156 1122.38 43.8142)" fill="url(#paint138_linear)"/>
<rect width="7.61228" height="29.7146" rx="3.80614" transform="matrix(0.359207 -0.951703 0.901529 0.388248 1097.36 82.9427)" fill="url(#paint139_linear)"/>
<rect width="7.75828" height="29.1041" rx="3.87914" transform="matrix(-0.26061 -0.962517 0.954577 -0.308542 1104.33 131.336)" fill="url(#paint140_linear)"/>
<rect width="7.27294" height="31.0447" rx="3.63647" transform="matrix(0.973741 -0.227733 0.189992 0.98177 1160.2 25.04)" fill="url(#paint141_linear)"/>
<rect width="7.4889" height="30.2121" rx="3.74445" transform="matrix(0.840818 0.504566 -0.471431 0.903073 1209.63 29.0139)" fill="url(#paint142_linear)"/>
<rect width="7.72944" height="29.2267" rx="3.86472" transform="matrix(0.42106 0.896944 -0.884174 0.488468 1241.83 69.6935)" fill="url(#paint143_linear)"/>
<rect width="7.72944" height="29.2267" rx="3.86472" transform="matrix(-0.0532576 1.00765 -0.988429 -0.0513953 1245.7 110.483)" fill="url(#paint144_linear)"/>
</g>
<defs>
<linearGradient id="paint0_linear" x1="699" y1="0" x2="789.5" y2="659" gradientUnits="userSpaceOnUse">
<stop stop-color="#017BB5"/>
<stop offset="0.409937" stop-color="#7DC7D8"/>
<stop offset="0.69482" stop-color="#CFDCDC"/>
<stop offset="0.872917" stop-color="#FCE8DD"/>
<stop offset="1" stop-color="#FBE9DE"/>
</linearGradient>
<linearGradient id="paint1_linear" x1="517" y1="293" x2="896.785" y2="1122.89" gradientUnits="userSpaceOnUse">
<stop offset="0.00312487" stop-color="#E1E2B8"/>
<stop offset="0.534175" stop-color="#E2BEB8"/>
<stop offset="0.825653" stop-color="#EB97A2"/>
<stop offset="1" stop-color="#E2BEB8" stop-opacity="0"/>
</linearGradient>
<linearGradient id="paint2_linear" x1="565.5" y1="235.5" x2="612.162" y2="734.968" gradientUnits="userSpaceOnUse">
<stop stop-color="white"/>
<stop offset="0.549892" stop-color="#D9ECF6" stop-opacity="0"/>
<stop offset="1" stop-color="#D9ECF6" stop-opacity="0"/>
</linearGradient>
<linearGradient id="paint3_linear" x1="424" y1="-1.99997" x2="-62" y2="484" gradientUnits="userSpaceOnUse">
<stop stop-color="#D9ECF6"/>
<stop offset="1" stop-color="#D9ECF6" stop-opacity="0"/>
</linearGradient>
<linearGradient id="paint4_linear" x1="224.5" y1="229" x2="808.5" y2="110" gradientUnits="userSpaceOnUse">
<stop stop-color="#D9ECF6"/>
<stop offset="1" stop-color="#D9ECF6" stop-opacity="0"/>
</linearGradient>
<linearGradient id="paint5_linear" x1="612.945" y1="245.348" x2="974.419" y2="175.15" gradientUnits="userSpaceOnUse">
<stop stop-color="#D9ECF6"/>
<stop offset="1" stop-color="#D9ECF6" stop-opacity="0"/>
</linearGradient>
<linearGradient id="paint6_linear" x1="667.866" y1="279.823" x2="1236.62" y2="175.945" gradientUnits="userSpaceOnUse">
<stop stop-color="#D9ECF6"/>
<stop offset="1" stop-color="#D9ECF6" stop-opacity="0"/>
</linearGradient>
<linearGradient id="paint7_linear" x1="153.11" y1="69.0443" x2="140.704" y2="478.92" gradientUnits="userSpaceOnUse">
<stop stop-color="#FEFBFB"/>
<stop offset="0.444112" stop-color="#FEFBFB" stop-opacity="0"/>
</linearGradient>
<linearGradient id="paint8_linear" x1="980.944" y1="442.119" x2="985.335" y2="507.606" gradientUnits="userSpaceOnUse">
<stop offset="0.318857" stop-color="#ECA9B1"/>
<stop offset="1" stop-color="white"/>
</linearGradient>
<linearGradient id="paint9_linear" x1="1068.5" y1="618.5" x2="1063" y2="740" gradientUnits="userSpaceOnUse">
<stop stop-color="#0D3146"/>
<stop offset="1" stop-color="#0D3146" stop-opacity="0"/>
</linearGradient>
<linearGradient id="paint10_linear" x1="1049.18" y1="526.272" x2="1125.88" y2="699.348" gradientUnits="userSpaceOnUse">
<stop stop-color="#0D3146"/>
<stop offset="1" stop-color="#0D3146" stop-opacity="0"/>
</linearGradient>
<linearGradient id="paint11_linear" x1="936.25" y1="536" x2="936.25" y2="639.5" gradientUnits="userSpaceOnUse">
<stop stop-color="#0F2E41"/>
<stop offset="1" stop-color="#0F2E41" stop-opacity="0"/>
</linearGradient>
<linearGradient id="paint12_linear" x1="1083.51" y1="640.257" x2="1109.44" y2="740.455" gradientUnits="userSpaceOnUse">
<stop stop-color="#0F2E41"/>
<stop offset="1" stop-color="#0F2E41" stop-opacity="0"/>
</linearGradient>
<linearGradient id="paint13_linear" x1="979.37" y1="429.145" x2="981.685" y2="511.414" gradientUnits="userSpaceOnUse">
<stop offset="0.318857" stop-color="#ECA9B1"/>
<stop offset="1" stop-color="white"/>
</linearGradient>
<linearGradient id="paint14_linear" x1="1039.73" y1="488.056" x2="890.952" y2="510.4" gradientUnits="userSpaceOnUse">
<stop stop-color="#EA5F73"/>
<stop offset="1" stop-color="#EA5F73" stop-opacity="0"/>
</linearGradient>
<linearGradient id="paint15_linear" x1="877.5" y1="-183.5" x2="-86.0001" y2="13.4996" gradientUnits="userSpaceOnUse">
<stop stop-color="#D9ECF6"/>
<stop offset="1" stop-color="#D9ECF6" stop-opacity="0"/>
</linearGradient>
<linearGradient id="paint16_linear" x1="704.5" y1="-296.999" x2="-332.01" y2="68.9695" gradientUnits="userSpaceOnUse">
<stop stop-color="#D9ECF6"/>
<stop offset="1" stop-color="#D9ECF6" stop-opacity="0"/>
</linearGradient>
<linearGradient id="paint17_linear" x1="1360.56" y1="-3.03491" x2="1359.98" y2="811.556" gradientUnits="userSpaceOnUse">
<stop stop-color="#4A99AC"/>
<stop offset="1" stop-color="white"/>
</linearGradient>
<linearGradient id="paint18_linear" x1="1303.15" y1="56.5026" x2="1251.73" y2="237.824" gradientUnits="userSpaceOnUse">
<stop stop-color="white"/>
<stop offset="1" stop-color="white" stop-opacity="0"/>
</linearGradient>
<linearGradient id="paint19_linear" x1="1299.09" y1="197.23" x2="1262.55" y2="300.069" gradientUnits="userSpaceOnUse">
<stop stop-color="#FAFAFA"/>
<stop offset="1" stop-color="#FAFAFA" stop-opacity="0"/>
</linearGradient>
<linearGradient id="paint20_linear" x1="1278.79" y1="342.015" x2="1251.73" y2="401.553" gradientUnits="userSpaceOnUse">
<stop stop-color="white"/>
<stop offset="1" stop-color="#53B7EA" stop-opacity="0"/>
</linearGradient>
<linearGradient id="paint21_linear" x1="1397" y1="416.5" x2="1322.5" y2="584" gradientUnits="userSpaceOnUse">
<stop stop-color="#004E34"/>
<stop offset="0.547714" stop-color="#286381"/>
<stop offset="0.979167" stop-color="#003243"/>
</linearGradient>
<linearGradient id="paint22_linear" x1="1261.6" y1="507.631" x2="1246.25" y2="528.745" gradientUnits="userSpaceOnUse">
<stop stop-color="#418E9C"/>
<stop offset="1" stop-color="#137149"/>
</linearGradient>
<linearGradient id="paint23_linear" x1="1194" y1="499" x2="1168" y2="546.5" gradientUnits="userSpaceOnUse">
<stop stop-color="#418E9C"/>
<stop offset="1" stop-color="#137149"/>
</linearGradient>
<linearGradient id="paint24_linear" x1="1122.99" y1="467.323" x2="1101.66" y2="540.628" gradientUnits="userSpaceOnUse">
<stop stop-color="#004E34"/>
<stop offset="1" stop-color="#286381"/>
</linearGradient>
<linearGradient id="paint25_linear" x1="-21.5752" y1="554.461" x2="867.835" y2="349.41" gradientUnits="userSpaceOnUse">
<stop stop-color="#64BFC3"/>
<stop offset="0.567708" stop-color="#1E4F74"/>
<stop offset="1" stop-color="#137149"/>
<stop offset="1" stop-color="#2E6890"/>
</linearGradient>
<linearGradient id="paint26_linear" x1="1330.55" y1="461.805" x2="646.625" y2="543.484" gradientUnits="userSpaceOnUse">
<stop stop-color="#4AB6BC"/>
<stop offset="1" stop-color="#F6F1EA"/>
</linearGradient>
<linearGradient id="paint27_linear" x1="1000.28" y1="490.048" x2="1017.18" y2="583.406" gradientUnits="userSpaceOnUse">
<stop stop-color="#075B85"/>
<stop offset="1" stop-color="#50739A"/>
</linearGradient>
<linearGradient id="paint28_linear" x1="1390.81" y1="577" x2="567.869" y2="817.784" gradientUnits="userSpaceOnUse">
<stop stop-color="#4AB6BC"/>
<stop offset="1" stop-color="#F6F1EA"/>
</linearGradient>
<linearGradient id="paint29_linear" x1="1167.96" y1="466" x2="1167.96" y2="497" gradientUnits="userSpaceOnUse">
<stop stop-color="#347999"/>
<stop offset="1" stop-color="#347999" stop-opacity="0"/>
</linearGradient>
<linearGradient id="paint30_linear" x1="641.333" y1="570.941" x2="598.962" y2="647.092" gradientUnits="userSpaceOnUse">
<stop stop-color="#192027"/>
<stop offset="0.570833" stop-color="#033750"/>
<stop offset="1" stop-color="#05103B" stop-opacity="0"/>
</linearGradient>
<linearGradient id="paint31_linear" x1="715.852" y1="599" x2="700.629" y2="644.069" gradientUnits="userSpaceOnUse">
<stop stop-color="#05103B"/>
<stop offset="1" stop-color="#05103B" stop-opacity="0"/>
</linearGradient>
<linearGradient id="paint32_linear" x1="3340.86" y1="717" x2="590.899" y2="919.417" gradientUnits="userSpaceOnUse">
<stop stop-color="#4AB6BC"/>
<stop offset="1" stop-color="#F6F1EA" stop-opacity="0"/>
</linearGradient>
<linearGradient id="paint33_linear" x1="1303.01" y1="544.56" x2="635.56" y2="785.404" gradientUnits="userSpaceOnUse">
<stop stop-color="#4AB6BC"/>
<stop offset="1" stop-color="#F6F1EA"/>
</linearGradient>
<linearGradient id="paint34_linear" x1="977.149" y1="40" x2="977.149" y2="113.701" gradientUnits="userSpaceOnUse">
<stop stop-color="#D9ECF6"/>
<stop offset="1" stop-color="#D9ECF6" stop-opacity="0"/>
</linearGradient>
<linearGradient id="paint35_linear" x1="1523.94" y1="666" x2="929.369" y2="703.377" gradientUnits="userSpaceOnUse">
<stop stop-color="#033750"/>
<stop offset="1" stop-color="#033750" stop-opacity="0"/>
</linearGradient>
<linearGradient id="paint36_linear" x1="703.75" y1="520" x2="703.75" y2="620.686" gradientUnits="userSpaceOnUse">
<stop stop-color="#042D58"/>
<stop offset="1" stop-color="#042D58" stop-opacity="0"/>
</linearGradient>
<linearGradient id="paint37_linear" x1="831.75" y1="186.5" x2="831.75" y2="196" gradientUnits="userSpaceOnUse">
<stop stop-color="#C4C4C4"/>
<stop offset="1" stop-color="#C4C4C4" stop-opacity="0"/>
</linearGradient>
<linearGradient id="paint38_linear" x1="805.5" y1="185" x2="805.5" y2="196" gradientUnits="userSpaceOnUse">
<stop stop-color="#C4C4C4"/>
<stop offset="1" stop-color="#C4C4C4" stop-opacity="0"/>
</linearGradient>
<linearGradient id="paint39_linear" x1="808.246" y1="144" x2="808.246" y2="156.932" gradientUnits="userSpaceOnUse">
<stop stop-color="white"/>
<stop offset="1" stop-color="white" stop-opacity="0"/>
</linearGradient>
<linearGradient id="paint40_linear" x1="785.186" y1="259.164" x2="770.759" y2="261.926" gradientUnits="userSpaceOnUse">
<stop stop-color="#C4C4C4"/>
<stop offset="1" stop-color="#C4C4C4" stop-opacity="0"/>
</linearGradient>
<linearGradient id="paint41_linear" x1="806" y1="253" x2="806" y2="262.144" gradientUnits="userSpaceOnUse">
<stop stop-color="#CF907B"/>
<stop offset="1" stop-color="#CF907B" stop-opacity="0"/>
</linearGradient>
<linearGradient id="paint42_linear" x1="928.162" y1="277.803" x2="847.005" y2="294.753" gradientUnits="userSpaceOnUse">
<stop stop-color="#C4C4C4"/>
<stop offset="1" stop-color="#C4C4C4" stop-opacity="0"/>
</linearGradient>
<linearGradient id="paint43_linear" x1="913" y1="233" x2="855.75" y2="248.5" gradientUnits="userSpaceOnUse">
<stop stop-color="#C4C4C4"/>
<stop offset="1" stop-color="#C4C4C4" stop-opacity="0"/>
</linearGradient>
<linearGradient id="paint44_linear" x1="142.5" y1="424.5" x2="139.75" y2="516.5" gradientUnits="userSpaceOnUse">
<stop stop-color="#D9ECF6"/>
<stop offset="1" stop-color="#D9ECF6" stop-opacity="0"/>
</linearGradient>
<linearGradient id="paint45_linear" x1="115.394" y1="498.258" x2="193.693" y2="546.64" gradientUnits="userSpaceOnUse">
<stop stop-color="#D9ECF6"/>
<stop offset="1" stop-color="#D9ECF6" stop-opacity="0"/>
</linearGradient>
<linearGradient id="paint46_linear" x1="87" y1="433" x2="87" y2="515" gradientUnits="userSpaceOnUse">
<stop stop-color="#1C5D69"/>
<stop offset="1" stop-color="#033847"/>
</linearGradient>
<linearGradient id="paint47_linear" x1="309" y1="498" x2="309" y2="572" gradientUnits="userSpaceOnUse">
<stop stop-color="#1C5D69"/>
<stop offset="1" stop-color="#033847"/>
</linearGradient>
<linearGradient id="paint48_linear" x1="63.5" y1="457" x2="49.75" y2="498.5" gradientUnits="userSpaceOnUse">
<stop stop-color="#063D4B"/>
<stop offset="1" stop-color="#063D4B" stop-opacity="0"/>
</linearGradient>
<linearGradient id="paint49_linear" x1="64" y1="438.5" x2="50.25" y2="480" gradientUnits="userSpaceOnUse">
<stop stop-color="#063D4B"/>
<stop offset="1" stop-color="#063D4B" stop-opacity="0"/>
</linearGradient>
<linearGradient id="paint50_linear" x1="-7.45521" y1="496.631" x2="90.8316" y2="692.133" gradientUnits="userSpaceOnUse">
<stop stop-color="#004E34"/>
<stop offset="0.547714" stop-color="#286381"/>
<stop offset="0.979167" stop-color="#003243"/>
</linearGradient>
<linearGradient id="paint51_linear" x1="157.753" y1="597.817" x2="177.242" y2="622.125" gradientUnits="userSpaceOnUse">
<stop stop-color="#418E9C"/>
<stop offset="1" stop-color="#137149"/>
</linearGradient>
<linearGradient id="paint52_linear" x1="235.01" y1="588.721" x2="268.693" y2="643.887" gradientUnits="userSpaceOnUse">
<stop stop-color="#418E9C"/>
<stop offset="1" stop-color="#137149"/>
</linearGradient>
<linearGradient id="paint53_linear" x1="322.113" y1="541.751" x2="351.695" y2="627.947" gradientUnits="userSpaceOnUse">
<stop stop-color="#004E34"/>
<stop offset="1" stop-color="#286381"/>
</linearGradient>
<linearGradient id="paint54_linear" x1="82.8886" y1="252.793" x2="68.3286" y2="252.87" gradientUnits="userSpaceOnUse">
<stop stop-color="#CF907B"/>
<stop offset="1" stop-color="#CF907B" stop-opacity="0"/>
</linearGradient>
<linearGradient id="paint55_linear" x1="62.8736" y1="361.355" x2="41.0216" y2="394.796" gradientUnits="userSpaceOnUse">
<stop stop-color="#E2E2B8"/>
<stop offset="1" stop-color="#F5D359" stop-opacity="0.73"/>
</linearGradient>
<linearGradient id="paint56_linear" x1="72.6323" y1="367.603" x2="68.8674" y2="416.126" gradientUnits="userSpaceOnUse">
<stop stop-color="white"/>
<stop offset="0.665391" stop-color="#FFE8B6" stop-opacity="0"/>
</linearGradient>
<linearGradient id="paint57_linear" x1="45.0924" y1="417.703" x2="50.9776" y2="440.307" gradientUnits="userSpaceOnUse">
<stop stop-color="white"/>
<stop offset="1" stop-color="white" stop-opacity="0"/>
</linearGradient>
<linearGradient id="paint58_linear" x1="39.0403" y1="425.195" x2="67.0275" y2="428.993" gradientUnits="userSpaceOnUse">
<stop stop-color="#174C6E"/>
<stop offset="1" stop-color="#4AB6BC"/>
</linearGradient>
<linearGradient id="paint59_linear" x1="39.5194" y1="423.557" x2="67.5691" y2="430.815" gradientUnits="userSpaceOnUse">
<stop stop-color="#174C6E"/>
<stop offset="1" stop-color="#4AB6BC"/>
</linearGradient>
<linearGradient id="paint60_linear" x1="40.2866" y1="420.495" x2="68.3815" y2="429.44" gradientUnits="userSpaceOnUse">
<stop stop-color="#174C6E"/>
<stop offset="1" stop-color="#4AB6BC"/>
</linearGradient>
<linearGradient id="paint61_linear" x1="41.2036" y1="415.546" x2="70.8081" y2="421.106" gradientUnits="userSpaceOnUse">
<stop stop-color="#174C6E"/>
<stop offset="1" stop-color="#4AB6BC"/>
</linearGradient>
<linearGradient id="paint62_linear" x1="38.9759" y1="330.17" x2="38.8171" y2="346.369" gradientUnits="userSpaceOnUse">
<stop stop-color="#E2E2B8"/>
<stop offset="1" stop-color="#E2E2B8" stop-opacity="0"/>
</linearGradient>
<linearGradient id="paint63_linear" x1="13.4037" y1="351.092" x2="13.3283" y2="372.264" gradientUnits="userSpaceOnUse">
<stop stop-color="#E2E2B8"/>
<stop offset="1" stop-color="#E2E2B8" stop-opacity="0"/>
</linearGradient>
<linearGradient id="paint64_linear" x1="9.12731" y1="385.062" x2="10.0669" y2="424.761" gradientUnits="userSpaceOnUse">
<stop stop-color="#E2E2B8"/>
<stop offset="0.589458" stop-color="#E2E2B8" stop-opacity="0"/>
</linearGradient>
<linearGradient id="paint65_linear" x1="69.8812" y1="325.646" x2="72.8731" y2="344.826" gradientUnits="userSpaceOnUse">
<stop stop-color="#E2E2B8"/>
<stop offset="1" stop-color="#E2E2B8" stop-opacity="0"/>
</linearGradient>
<linearGradient id="paint66_linear" x1="104.794" y1="338.871" x2="105.725" y2="357.389" gradientUnits="userSpaceOnUse">
<stop stop-color="#E2E2B8"/>
<stop offset="1" stop-color="#E2E2B8" stop-opacity="0"/>
</linearGradient>
<linearGradient id="paint67_linear" x1="120.212" y1="373.052" x2="120.802" y2="389.756" gradientUnits="userSpaceOnUse">
<stop stop-color="#E2E2B8"/>
<stop offset="1" stop-color="#E2E2B8" stop-opacity="0"/>
</linearGradient>
<linearGradient id="paint68_linear" x1="115.163" y1="401.256" x2="114.12" y2="420.112" gradientUnits="userSpaceOnUse">
<stop stop-color="#E2E2B8"/>
<stop offset="0.0833333" stop-color="#E2E2B8" stop-opacity="0.916667"/>
<stop offset="1" stop-color="#E2E2B8" stop-opacity="0"/>
</linearGradient>
<linearGradient id="paint69_linear" x1="1326.49" y1="577.707" x2="1326.49" y2="690.207" gradientUnits="userSpaceOnUse">
<stop stop-color="#4AB6BC"/>
<stop offset="1" stop-color="#015681"/>
</linearGradient>
<linearGradient id="paint70_linear" x1="1369.51" y1="567.871" x2="1369.51" y2="595.125" gradientUnits="userSpaceOnUse">
<stop stop-color="#015582"/>
<stop offset="1" stop-color="#4AB6BC"/>
</linearGradient>
<linearGradient id="paint71_linear" x1="1361.17" y1="565.475" x2="1361.17" y2="595.905" gradientUnits="userSpaceOnUse">
<stop stop-color="#015582"/>
<stop offset="1" stop-color="#4AB6BC"/>
</linearGradient>
<linearGradient id="paint72_linear" x1="1333.85" y1="560.047" x2="1333.85" y2="585.207" gradientUnits="userSpaceOnUse">
<stop stop-color="#040917"/>
<stop offset="1" stop-color="#033750"/>
</linearGradient>
<linearGradient id="paint73_linear" x1="1330.36" y1="550.874" x2="1307.07" y2="575.314" gradientUnits="userSpaceOnUse">
<stop stop-color="#040917"/>
<stop offset="1" stop-color="#04324A"/>
</linearGradient>
<linearGradient id="paint74_linear" x1="1341.37" y1="527" x2="1341.37" y2="553.124" gradientUnits="userSpaceOnUse">
<stop stop-color="#015582"/>
<stop offset="1" stop-color="#4AB6BC"/>
</linearGradient>
<linearGradient id="paint75_linear" x1="1534" y1="531.5" x2="1347.53" y2="512.443" gradientUnits="userSpaceOnUse">
<stop stop-color="#033847"/>
<stop offset="1" stop-color="#033847" stop-opacity="0"/>
</linearGradient>
<linearGradient id="paint76_linear" x1="1371.19" y1="632.227" x2="1304.12" y2="632.745" gradientUnits="userSpaceOnUse">
<stop stop-color="#4AB6BC"/>
<stop offset="1" stop-color="#F6F1EA"/>
</linearGradient>
<linearGradient id="paint77_linear" x1="1344.02" y1="533" x2="1344.02" y2="551.559" gradientUnits="userSpaceOnUse">
<stop stop-color="#E5E5E5"/>
<stop offset="1" stop-color="white" stop-opacity="0"/>
</linearGradient>
<linearGradient id="paint78_linear" x1="1369.77" y1="585.279" x2="1355.09" y2="587.13" gradientUnits="userSpaceOnUse">
<stop stop-color="#E5E5E5"/>
<stop offset="1" stop-color="white" stop-opacity="0"/>
</linearGradient>
<linearGradient id="paint79_linear" x1="1359.76" y1="572.499" x2="1334.51" y2="533.08" gradientUnits="userSpaceOnUse">
<stop stop-color="#E5E5E5"/>
<stop offset="1" stop-color="white" stop-opacity="0"/>
</linearGradient>
<linearGradient id="paint80_linear" x1="27.5" y1="546.324" x2="46" y2="503.324" gradientUnits="userSpaceOnUse">
<stop stop-color="#E5E5E5"/>
<stop offset="1" stop-color="white" stop-opacity="0"/>
</linearGradient>
<linearGradient id="paint81_linear" x1="1339.5" y1="613.324" x2="1358" y2="570.324" gradientUnits="userSpaceOnUse">
<stop stop-color="#E5E5E5"/>
<stop offset="1" stop-color="white" stop-opacity="0"/>
</linearGradient>
<linearGradient id="paint82_linear" x1="119.5" y1="533" x2="98" y2="562" gradientUnits="userSpaceOnUse">
<stop stop-color="#033847"/>
<stop offset="1" stop-color="#033847" stop-opacity="0"/>
</linearGradient>
<linearGradient id="paint83_linear" x1="67" y1="0" x2="67" y2="134" gradientUnits="userSpaceOnUse">
<stop stop-color="#EAEDE7"/>
<stop offset="1" stop-color="#63BFC3"/>
</linearGradient>
<linearGradient id="paint84_linear" x1="13.1339" y1="1.59155" x2="-9.29703" y2="15.4876" gradientUnits="userSpaceOnUse">
<stop stop-color="#4080A0"/>
<stop offset="1" stop-color="white"/>
</linearGradient>
<linearGradient id="paint85_linear" x1="1220.98" y1="545.212" x2="1198.55" y2="559.108" gradientUnits="userSpaceOnUse">
<stop stop-color="#4080A0"/>
<stop offset="1" stop-color="white"/>
</linearGradient>
<linearGradient id="paint86_linear" x1="1319.5" y1="474.5" x2="1245.98" y2="611.239" gradientUnits="userSpaceOnUse">
<stop stop-color="#A9DCDF"/>
<stop offset="1" stop-color="#A9DCDF" stop-opacity="0"/>
</linearGradient>
<linearGradient id="paint87_linear" x1="1412.5" y1="593.944" x2="1261.39" y2="629.571" gradientUnits="userSpaceOnUse">
<stop stop-color="#A9DCDF"/>
<stop offset="1" stop-color="#A9DCDF" stop-opacity="0"/>
</linearGradient>
<linearGradient id="paint88_linear" x1="29.0561" y1="0" x2="29.0561" y2="58.1122" gradientUnits="userSpaceOnUse">
<stop stop-color="#015681"/>
<stop offset="1" stop-color="#378DB7"/>
</linearGradient>
<linearGradient id="paint89_linear" x1="1184.99" y1="581.707" x2="1184.99" y2="694.207" gradientUnits="userSpaceOnUse">
<stop stop-color="#4AB6BC"/>
<stop offset="1" stop-color="#015681"/>
</linearGradient>
<linearGradient id="paint90_linear" x1="1141.98" y1="571.871" x2="1141.98" y2="599.125" gradientUnits="userSpaceOnUse">
<stop stop-color="#015582"/>
<stop offset="1" stop-color="#4AB6BC"/>
</linearGradient>
<linearGradient id="paint91_linear" x1="1150.32" y1="569.475" x2="1150.32" y2="599.905" gradientUnits="userSpaceOnUse">
<stop stop-color="#015582"/>
<stop offset="1" stop-color="#4AB6BC"/>
</linearGradient>
<linearGradient id="paint92_linear" x1="1177.63" y1="564.047" x2="1177.63" y2="589.207" gradientUnits="userSpaceOnUse">
<stop stop-color="#040917"/>
<stop offset="1" stop-color="#033750"/>
</linearGradient>
<linearGradient id="paint93_linear" x1="1181.12" y1="554.874" x2="1204.41" y2="579.314" gradientUnits="userSpaceOnUse">
<stop stop-color="#040917"/>
<stop offset="1" stop-color="#04324A"/>
</linearGradient>
<linearGradient id="paint94_linear" x1="1170.11" y1="531" x2="1170.11" y2="557.124" gradientUnits="userSpaceOnUse">
<stop stop-color="#015582"/>
<stop offset="1" stop-color="#4AB6BC"/>
</linearGradient>
<linearGradient id="paint95_linear" x1="1094" y1="605.5" x2="1082" y2="679" gradientUnits="userSpaceOnUse">
<stop stop-color="#015681"/>
<stop offset="0.0001" stop-color="#033750"/>
<stop offset="1" stop-color="#409CC9"/>
</linearGradient>
<linearGradient id="paint96_linear" x1="977.484" y1="535.5" x2="1163.96" y2="516.443" gradientUnits="userSpaceOnUse">
<stop stop-color="#033847"/>
<stop offset="1" stop-color="#033847" stop-opacity="0"/>
</linearGradient>
<linearGradient id="paint97_linear" x1="1140.3" y1="636.227" x2="1207.36" y2="636.745" gradientUnits="userSpaceOnUse">
<stop stop-color="#4AB6BC"/>
<stop offset="1" stop-color="#F6F1EA"/>
</linearGradient>
<linearGradient id="paint98_linear" x1="1167.47" y1="537" x2="1167.47" y2="555.559" gradientUnits="userSpaceOnUse">
<stop stop-color="#E5E5E5"/>
<stop offset="1" stop-color="white" stop-opacity="0"/>
</linearGradient>
<linearGradient id="paint99_linear" x1="1141.72" y1="589.279" x2="1156.39" y2="591.13" gradientUnits="userSpaceOnUse">
<stop stop-color="#E5E5E5"/>
<stop offset="1" stop-color="white" stop-opacity="0"/>
</linearGradient>
<linearGradient id="paint100_linear" x1="1161.98" y1="616" x2="1143.48" y2="573" gradientUnits="userSpaceOnUse">
<stop stop-color="#E5E5E5"/>
<stop offset="1" stop-color="white" stop-opacity="0"/>
</linearGradient>
<linearGradient id="paint101_linear" x1="1151.73" y1="576.499" x2="1176.97" y2="537.08" gradientUnits="userSpaceOnUse">
<stop stop-color="#E5E5E5"/>
<stop offset="1" stop-color="white" stop-opacity="0"/>
</linearGradient>
<linearGradient id="paint102_linear" x1="1171.98" y1="617.324" x2="1153.48" y2="574.324" gradientUnits="userSpaceOnUse">
<stop stop-color="#E5E5E5"/>
<stop offset="1" stop-color="white" stop-opacity="0"/>
</linearGradient>
<linearGradient id="paint103_linear" x1="1079.98" y1="604" x2="1101.48" y2="633" gradientUnits="userSpaceOnUse">
<stop stop-color="#033847"/>
<stop offset="1" stop-color="#033847" stop-opacity="0"/>
</linearGradient>
<linearGradient id="paint104_linear" x1="1070.05" y1="259.587" x2="980.293" y2="687.664" gradientUnits="userSpaceOnUse">
<stop stop-color="#FEFBFB"/>
<stop offset="0.444112" stop-color="#FEFBFB" stop-opacity="0"/>
</linearGradient>
<linearGradient id="paint105_linear" x1="1117.13" y1="75.4607" x2="1030.02" y2="634.862" gradientUnits="userSpaceOnUse">
<stop stop-color="#FEFBFB"/>
<stop offset="0.444112" stop-color="#FEFBFB" stop-opacity="0"/>
</linearGradient>
<linearGradient id="paint106_linear" x1="1037.03" y1="244" x2="952.029" y2="296" gradientUnits="userSpaceOnUse">
<stop stop-color="#EDB7BC"/>
<stop offset="1" stop-color="#EDB7BC" stop-opacity="0"/>
</linearGradient>
<linearGradient id="paint107_linear" x1="1033.86" y1="395.877" x2="1041.08" y2="519.246" gradientUnits="userSpaceOnUse">
<stop stop-color="#4AB6BC"/>
<stop offset="1" stop-color="#4AB6BC" stop-opacity="0"/>
</linearGradient>
<linearGradient id="paint108_linear" x1="1082.38" y1="401.042" x2="1074.22" y2="523.522" gradientUnits="userSpaceOnUse">
<stop stop-color="#4AB6BC"/>
<stop offset="1" stop-color="#4AB6BC" stop-opacity="0"/>
</linearGradient>
<linearGradient id="paint109_linear" x1="1011.2" y1="402.793" x2="972.671" y2="519.341" gradientUnits="userSpaceOnUse">
<stop stop-color="#4AB6BC"/>
<stop offset="1" stop-color="#4AB6BC" stop-opacity="0"/>
</linearGradient>
<linearGradient id="paint110_linear" x1="1182.81" y1="209.378" x2="1182.81" y2="381.848" gradientUnits="userSpaceOnUse">
<stop stop-color="white"/>
<stop offset="1" stop-color="white" stop-opacity="0"/>
</linearGradient>
<linearGradient id="paint111_linear" x1="818.25" y1="166.5" x2="818.25" y2="185.59" gradientUnits="userSpaceOnUse">
<stop stop-color="#CF907B"/>
<stop offset="1" stop-color="#CF907B" stop-opacity="0"/>
</linearGradient>
<linearGradient id="paint112_linear" x1="851.75" y1="180.5" x2="850.5" y2="186.5" gradientUnits="userSpaceOnUse">
<stop stop-color="#F0F0F0"/>
<stop offset="1" stop-color="#C4C4C4" stop-opacity="0"/>
</linearGradient>
<linearGradient id="paint113_linear" x1="787.25" y1="182.5" x2="788.5" y2="188.5" gradientUnits="userSpaceOnUse">
<stop stop-color="#F0F0F0"/>
<stop offset="1" stop-color="#C4C4C4" stop-opacity="0"/>
</linearGradient>
<linearGradient id="paint114_linear" x1="779.75" y1="241.5" x2="779.75" y2="255.216" gradientUnits="userSpaceOnUse">
<stop stop-color="#CF907B"/>
<stop offset="1" stop-color="#CF907B" stop-opacity="0"/>
</linearGradient>
<linearGradient id="paint115_linear" x1="831.75" y1="150.5" x2="831.75" y2="156.596" gradientUnits="userSpaceOnUse">
<stop stop-color="#CF907B"/>
<stop offset="1" stop-color="#CF907B" stop-opacity="0"/>
</linearGradient>
<linearGradient id="paint116_linear" x1="799.5" y1="312" x2="893.137" y2="426.653" gradientUnits="userSpaceOnUse">
<stop stop-color="#0D3146"/>
<stop offset="1" stop-color="#0D3146" stop-opacity="0"/>
</linearGradient>
<linearGradient id="paint117_linear" x1="798.77" y1="223.09" x2="780.787" y2="225.354" gradientUnits="userSpaceOnUse">
<stop stop-color="#C4C4C4"/>
<stop offset="1" stop-color="#C4C4C4" stop-opacity="0"/>
</linearGradient>
<linearGradient id="paint118_linear" x1="32.9282" y1="512.765" x2="59.5977" y2="691.918" gradientUnits="userSpaceOnUse">
<stop stop-color="#4AB6BC"/>
<stop offset="1" stop-color="#015681"/>
</linearGradient>
<linearGradient id="paint119_linear" x1="99.095" y1="486.904" x2="105.556" y2="530.305" gradientUnits="userSpaceOnUse">
<stop stop-color="#015582"/>
<stop offset="1" stop-color="#4AB6BC"/>
</linearGradient>
<linearGradient id="paint120_linear" x1="85.2448" y1="485.066" x2="92.4586" y2="533.525" gradientUnits="userSpaceOnUse">
<stop stop-color="#015582"/>
<stop offset="1" stop-color="#4AB6BC"/>
</linearGradient>
<linearGradient id="paint121_linear" x1="40.4632" y1="482.897" x2="46.4277" y2="522.964" gradientUnits="userSpaceOnUse">
<stop stop-color="#040917"/>
<stop offset="1" stop-color="#033750"/>
</linearGradient>
<linearGradient id="paint122_linear" x1="32.7312" y1="469.116" x2="1.4358" y2="513.558" gradientUnits="userSpaceOnUse">
<stop stop-color="#040917"/>
<stop offset="1" stop-color="#04324A"/>
</linearGradient>
<linearGradient id="paint123_linear" x1="41.8547" y1="420.454" x2="48.0478" y2="462.056" gradientUnits="userSpaceOnUse">
<stop stop-color="#015582"/>
<stop offset="1" stop-color="#4AB6BC"/>
</linearGradient>
<linearGradient id="paint124_linear" x1="210.26" y1="390.7" x2="-19.2365" y2="482.003" gradientUnits="userSpaceOnUse">
<stop stop-color="#033847"/>
<stop offset="1" stop-color="#033847" stop-opacity="0"/>
</linearGradient>
<linearGradient id="paint125_linear" x1="187.315" y1="563.262" x2="98.9918" y2="566.383" gradientUnits="userSpaceOnUse">
<stop stop-color="#4AB6BC"/>
<stop offset="1" stop-color="#F6F1EA"/>
</linearGradient>
<linearGradient id="paint126_linear" x1="49.2253" y1="434.664" x2="52.6158" y2="457.44" gradientUnits="userSpaceOnUse">
<stop stop-color="#E5E5E5"/>
<stop offset="1" stop-color="white" stop-opacity="0"/>
</linearGradient>
<linearGradient id="paint127_linear" x1="100.892" y1="506.531" x2="77.9557" y2="512.958" gradientUnits="userSpaceOnUse">
<stop stop-color="#E5E5E5"/>
<stop offset="1" stop-color="white" stop-opacity="0"/>
</linearGradient>
<linearGradient id="paint128_linear" x1="77.6979" y1="561.921" x2="96.9649" y2="489.059" gradientUnits="userSpaceOnUse">
<stop stop-color="#E5E5E5"/>
<stop offset="1" stop-color="white" stop-opacity="0"/>
</linearGradient>
<linearGradient id="paint129_linear" x1="77.1267" y1="484.219" x2="33.7856" y2="434.546" gradientUnits="userSpaceOnUse">
<stop stop-color="#E5E5E5"/>
<stop offset="1" stop-color="white" stop-opacity="0"/>
</linearGradient>
<linearGradient id="paint130_linear" x1="1155.65" y1="288.288" x2="1136.83" y2="293.4" gradientUnits="userSpaceOnUse">
<stop stop-color="#CF907B"/>
<stop offset="1" stop-color="#CF907B" stop-opacity="0"/>
</linearGradient>
<linearGradient id="paint131_linear" x1="1167.79" y1="75.8265" x2="1150.23" y2="130.03" gradientUnits="userSpaceOnUse">
<stop stop-color="#E2E2B8"/>
<stop offset="1" stop-color="#F5D359" stop-opacity="0.73"/>
</linearGradient>
<linearGradient id="paint132_linear" x1="1182.54" y1="80.4414" x2="1198.06" y2="148.023" gradientUnits="userSpaceOnUse">
<stop stop-color="white"/>
<stop offset="0.665391" stop-color="#FFE8B6" stop-opacity="0"/>
</linearGradient>
<linearGradient id="paint133_linear" x1="1165.69" y1="160.443" x2="1183.4" y2="187.852" gradientUnits="userSpaceOnUse">
<stop stop-color="white"/>
<stop offset="1" stop-color="white" stop-opacity="0"/>
</linearGradient>
<linearGradient id="paint134_linear" x1="1160.7" y1="173.194" x2="1197.99" y2="168.168" gradientUnits="userSpaceOnUse">
<stop stop-color="#174C6E"/>
<stop offset="1" stop-color="#4AB6BC"/>
</linearGradient>
<linearGradient id="paint135_linear" x1="1160.71" y1="170.749" x2="1199.21" y2="169.828" gradientUnits="userSpaceOnUse">
<stop stop-color="#174C6E"/>
<stop offset="1" stop-color="#4AB6BC"/>
</linearGradient>
<linearGradient id="paint136_linear" x1="1160.57" y1="166.231" x2="1199.73" y2="167.295" gradientUnits="userSpaceOnUse">
<stop stop-color="#174C6E"/>
<stop offset="1" stop-color="#4AB6BC"/>
</linearGradient>
<linearGradient id="paint137_linear" x1="1159.93" y1="159.062" x2="1199.86" y2="155.592" gradientUnits="userSpaceOnUse">
<stop stop-color="#174C6E"/>
<stop offset="1" stop-color="#4AB6BC"/>
</linearGradient>
<linearGradient id="paint138_linear" x1="3.65212" y1="-3.36225e-09" x2="3.41328" y2="23.0049" gradientUnits="userSpaceOnUse">
<stop stop-color="#E2E2B8"/>
<stop offset="1" stop-color="#E2E2B8" stop-opacity="0"/>
</linearGradient>
<linearGradient id="paint139_linear" x1="3.80614" y1="-7.56708e-09" x2="3.7057" y2="28.8892" gradientUnits="userSpaceOnUse">
<stop stop-color="#E2E2B8"/>
<stop offset="1" stop-color="#E2E2B8" stop-opacity="0"/>
</linearGradient>
<linearGradient id="paint140_linear" x1="3.87914" y1="9.35648e-09" x2="5.05696" y2="53.0617" gradientUnits="userSpaceOnUse">
<stop stop-color="#E2E2B8"/>
<stop offset="0.589458" stop-color="#E2E2B8" stop-opacity="0"/>
</linearGradient>
<linearGradient id="paint141_linear" x1="3.63647" y1="-6.3558e-08" x2="8.17315" y2="27.2528" gradientUnits="userSpaceOnUse">
<stop stop-color="#E2E2B8"/>
<stop offset="1" stop-color="#E2E2B8" stop-opacity="0"/>
</linearGradient>
<linearGradient id="paint142_linear" x1="3.74445" y1="1.92474e-08" x2="5.04712" y2="25.6901" gradientUnits="userSpaceOnUse">
<stop stop-color="#E2E2B8"/>
<stop offset="1" stop-color="#E2E2B8" stop-opacity="0"/>
</linearGradient>
<linearGradient id="paint143_linear" x1="3.86472" y1="1.17845e-08" x2="4.61241" y2="22.4223" gradientUnits="userSpaceOnUse">
<stop stop-color="#E2E2B8"/>
<stop offset="1" stop-color="#E2E2B8" stop-opacity="0"/>
</linearGradient>
<linearGradient id="paint144_linear" x1="3.86472" y1="0" x2="2.54076" y2="25.3149" gradientUnits="userSpaceOnUse">
<stop stop-color="#E2E2B8"/>
<stop offset="0.0833333" stop-color="#E2E2B8" stop-opacity="0.916667"/>
<stop offset="1" stop-color="#E2E2B8" stop-opacity="0"/>
</linearGradient>
<clipPath id="clip0">
<rect width="1366" height="675" fill="white"/>
</clipPath>
</defs>
</svg>
