<svg width="37" height="34" viewBox="0 0 37 34" fill="none" xmlns="http://www.w3.org/2000/svg">
<rect x="2.10742" y="1.1377" width="32.4878" height="30.7317" fill="url(#paint0_linear)"/>
<path d="M14.4004 2.01562H23.1809V11.6742L18.7906 9.91806L14.4004 11.6742V2.01562Z" fill="white"/>
<path fill-rule="evenodd" clip-rule="evenodd" d="M2.54668 0.0898438C1.33435 0.0898438 0.351562 1.07263 0.351562 2.28497V31.2606C0.351562 32.4729 1.33435 33.4557 2.54668 33.4557H34.1564C35.3688 33.4557 36.3516 32.4729 36.3516 31.2606V2.28497C36.3516 1.07263 35.3688 0.0898438 34.1564 0.0898438H22.7614H14.2751H2.54668ZM12.9581 2.72399H2.98571V30.8215H33.7174V2.72399H24.0784V13.0522C24.0784 13.5227 23.8275 13.9575 23.4201 14.1928C23.0127 14.4281 22.5107 14.4282 22.1032 14.1931L18.4835 12.1048L14.9429 14.1875C14.5357 14.427 14.0314 14.4301 13.6212 14.1955C13.2111 13.961 12.9581 13.5247 12.9581 13.0522V2.72399ZM21.4443 2.72399H15.5922V10.7495L17.8093 9.4453C18.218 9.20486 18.7245 9.20272 19.1352 9.4397L21.4443 10.7719V2.72399ZM6.94206 24.5059C6.21466 24.5059 5.62499 25.0956 5.62499 25.823C5.62499 26.5504 6.21466 27.14 6.94206 27.14H18.4767C19.2041 27.14 19.7938 26.5504 19.7938 25.823C19.7938 25.0956 19.2041 24.5059 18.4767 24.5059H6.94206ZM5.62499 21.2089C5.62499 20.4815 6.21466 19.8918 6.94206 19.8918H11.6383C12.3657 19.8918 12.9554 20.4815 12.9554 21.2089C12.9554 21.9363 12.3657 22.526 11.6383 22.526H6.94206C6.21466 22.526 5.62499 21.9363 5.62499 21.2089Z" fill="#F64861"/>
<defs>
<linearGradient id="paint0_linear" x1="20.9713" y1="-9.48561" x2="14.4148" y2="22.0107" gradientUnits="userSpaceOnUse">
<stop stop-color="#F64860"/>
<stop offset="1" stop-color="white"/>
</linearGradient>
</defs>
</svg>
