<svg width="41" height="43" viewBox="0 0 41 43" fill="none" xmlns="http://www.w3.org/2000/svg">
<rect x="5" y="6" width="30" height="23" fill="url(#paint0_linear)"/>
<path d="M14.2783 10.483C14.8151 10.0955 15.5424 10.1058 16.0681 10.5082L21.7698 14.8731L24.0532 13.431C24.5874 13.0936 25.2759 13.1271 25.7747 13.5149L30.9206 17.5149C31.2862 17.7991 31.5 18.2362 31.5 18.6992V21.3992C31.5 22.2276 30.8284 22.8992 30 22.8992H11C10.1716 22.8992 9.5 22.2276 9.5 21.3992V14.6992C9.5 14.2174 9.73143 13.7649 10.1221 13.483L14.2783 10.483Z" fill="white"/>
<path fill-rule="evenodd" clip-rule="evenodd" d="M21.6953 1.5C21.6953 0.671573 21.0237 0 20.1953 0C19.3669 0 18.6953 0.671573 18.6953 1.5V3.73828H6.4635H1.5C0.671573 3.73828 0 4.40985 0 5.23828C0 6.06671 0.671573 6.73828 1.5 6.73828H3.43915C3.43805 6.77517 3.4375 6.81209 3.4375 6.84902V27.6275C3.4375 28.4281 3.6948 29.2217 4.26823 29.827C4.8486 30.4396 5.63964 30.7383 6.4635 30.7383H10.0375L7.41875 37.5471C7.12136 38.3203 7.50709 39.1882 8.2803 39.4856C9.0535 39.783 9.92139 39.3973 10.2188 38.6241L13.2518 30.7383H18.6953V41.5003C18.6953 42.3287 19.3669 43.0003 20.1953 43.0003C21.0237 43.0003 21.6953 42.3287 21.6953 41.5003V30.7383H27.1456L30.1786 38.6241C30.476 39.3973 31.3439 39.783 32.1171 39.4856C32.8903 39.1882 33.276 38.3203 32.9786 37.5471L30.3598 30.7383H33.9315C35.9266 30.7383 36.9575 28.9857 36.9575 27.4665V6.84902C36.9575 6.81209 36.957 6.77517 36.9559 6.73828H38.8984C39.7268 6.73828 40.3984 6.06671 40.3984 5.23828C40.3984 4.40985 39.7268 3.73828 38.8984 3.73828H33.9315H21.6953V1.5ZM6.44704 6.7386C6.45207 6.7384 6.45755 6.73828 6.4635 6.73828H20.1263C20.1492 6.73932 20.1722 6.73984 20.1953 6.73984C20.2184 6.73984 20.2415 6.73932 20.2643 6.73828H33.9315C33.9374 6.73828 33.9429 6.7384 33.948 6.7386C33.9529 6.7633 33.9575 6.79954 33.9575 6.84902V27.4665C33.9575 27.6108 33.9198 27.699 33.8963 27.7383H6.4635C6.45755 27.7383 6.45207 27.7382 6.44704 27.738C6.44208 27.7133 6.4375 27.677 6.4375 27.6275V6.84902C6.4375 6.79954 6.44208 6.7633 6.44704 6.7386ZM16.0681 10.5091C15.5424 10.1067 14.8151 10.0965 14.2783 10.4839L10.1221 13.4839C9.73143 13.7659 9.5 14.2184 9.5 14.7002V21.4002C9.5 22.2286 10.1716 22.9002 11 22.9002H30C30.8284 22.9002 31.5 22.2286 31.5 21.4002V18.7002C31.5 18.2372 31.2862 17.8001 30.9206 17.5159L25.7747 13.5159C25.2759 13.1281 24.5874 13.0945 24.0532 13.432L21.7698 14.8741L16.0681 10.5091ZM12.5 19.9002V15.4674L15.1299 13.5691L20.7757 17.8912C21.2742 18.2729 21.9577 18.3037 22.4885 17.9684L24.7649 16.5307L28.5 19.4341V19.9002H12.5Z" fill="#F64861"/>
<defs>
<linearGradient id="paint0_linear" x1="22.4194" y1="-1.95062" x2="18.3849" y2="21.9624" gradientUnits="userSpaceOnUse">
<stop stop-color="#F64860"/>
<stop offset="1" stop-color="white"/>
</linearGradient>
</defs>
</svg>
