<svg width="42" height="42" viewBox="0 0 42 42" fill="none" xmlns="http://www.w3.org/2000/svg">
<rect x="8" y="11.335" width="26" height="24" rx="12" fill="url(#paint0_linear_503_6)"/>
<path d="M30.5967 11.6243L33.0789 9.14212L35.4945 11.5577L33.0123 14.0399C35.465 17.1101 36.6492 21.0029 36.3215 24.9188C35.9937 28.8347 34.1791 32.4766 31.2501 35.0964C28.3212 37.7161 24.5003 39.115 20.5722 39.0056C16.6441 38.8963 12.9069 37.287 10.1282 34.5084C7.34957 31.7297 5.74031 27.9925 5.63096 24.0644C5.52161 20.1363 6.92047 16.3154 9.54024 13.3865C12.16 10.4575 15.8019 8.64287 19.7178 8.31515C23.6337 7.98743 27.5265 9.17156 30.5967 11.6243V11.6243ZM20.9993 35.5957C22.5697 35.5957 24.1247 35.2864 25.5755 34.6854C27.0264 34.0844 28.3447 33.2036 29.4551 32.0931C30.5655 30.9827 31.4464 29.6644 32.0473 28.2136C32.6483 26.7627 32.9576 25.2077 32.9576 23.6373C32.9576 22.0669 32.6483 20.5119 32.0473 19.0611C31.4464 17.6102 30.5655 16.2919 29.4551 15.1815C28.3447 14.0711 27.0264 13.1902 25.5755 12.5893C24.1247 11.9883 22.5697 11.679 20.9993 11.679C17.8277 11.679 14.7861 12.9389 12.5434 15.1815C10.3008 17.4241 9.04093 20.4658 9.04093 23.6373C9.04093 26.8089 10.3008 29.8505 12.5434 32.0931C14.7861 34.3358 17.8277 35.5957 20.9993 35.5957V35.5957ZM19.2909 15.0957H22.7076V25.3457H19.2909V15.0957ZM14.1659 3.13733H27.8326V6.554H14.1659V3.13733Z" fill="#F64861"/>
<defs>
<linearGradient id="paint0_linear_503_6" x1="23.0968" y1="3.03867" x2="18.0903" y2="27.6847" gradientUnits="userSpaceOnUse">
<stop stop-color="#F64860"/>
<stop offset="1" stop-color="white"/>
</linearGradient>
</defs>
</svg>
