<svg width="31" height="38" viewBox="0 0 31 38" fill="none" xmlns="http://www.w3.org/2000/svg">
<rect x="2.17578" y="2" width="26" height="24" fill="url(#paint0_linear)"/>
<circle cx="15.1758" cy="12" r="4" fill="white"/>
<path fill-rule="evenodd" clip-rule="evenodd" d="M0.175781 2.5C0.175781 1.11929 1.29507 0 2.67578 0H27.6758C29.0565 0 30.1758 1.11929 30.1758 2.5V34.6592V35.5C30.1758 36.8807 29.0565 38 27.6758 38H2.67578C1.29507 38 0.175781 36.8807 0.175781 35.5V34.6592V2.5ZM27.1758 3V25.6768C24.4351 22.0273 20.0729 19.6592 15.1758 19.6592C10.2787 19.6592 5.91641 22.0273 3.17578 25.6768V3H27.1758ZM15.1758 22.6592C8.57162 22.6592 3.17578 28.055 3.17578 34.6592V35H27.1758V34.6592C27.1758 28.055 21.7799 22.6592 15.1758 22.6592ZM12.3848 11.6602C12.3848 10.1042 13.6462 8.84277 15.2022 8.84277C16.7582 8.84277 18.0196 10.1042 18.0196 11.6602C18.0196 13.2162 16.7582 14.4776 15.2022 14.4776C13.6462 14.4776 12.3848 13.2162 12.3848 11.6602ZM15.2022 5.84277C11.9893 5.84277 9.38477 8.44733 9.38477 11.6602C9.38477 14.8731 11.9893 17.4776 15.2022 17.4776C18.4151 17.4776 21.0196 14.8731 21.0196 11.6602C21.0196 8.44733 18.4151 5.84277 15.2022 5.84277Z" fill="#F64861"/>
<defs>
<linearGradient id="paint0_linear" x1="17.2726" y1="-6.2963" x2="12.2661" y2="18.3497" gradientUnits="userSpaceOnUse">
<stop stop-color="#F64860"/>
<stop offset="1" stop-color="white"/>
</linearGradient>
</defs>
</svg>
