<svg width="38" height="36" viewBox="0 0 38 36" fill="none" xmlns="http://www.w3.org/2000/svg">
<path d="M31.9052 18.3974L30.3206 20.0494C24.1734 26.4582 14.0325 26.7829 7.48789 20.7805L4.7961 18.3117C3.13758 16.7906 2.19336 14.6434 2.19336 12.3929C2.19336 10.0801 3.19047 7.87949 4.92942 6.35458L5.08498 6.21817C7.35887 4.22416 10.522 3.59072 13.3884 4.55537L15.9537 5.41868C18.0783 6.1337 20.3959 6.00966 22.4321 5.07194L22.7536 4.92385C25.3502 3.72804 28.3833 3.97826 30.7488 5.58343C33.5599 7.49098 34.8951 10.9406 34.1007 14.2437L34.0416 14.4895C33.6883 15.9585 32.951 17.3071 31.9052 18.3974Z" fill="url(#paint0_linear_503_2)"/>
<path d="M18.8349 3.40862C23.2393 -0.545759 30.0455 -0.414509 34.2886 3.83612C38.5299 8.08861 38.6761 14.8611 34.7311 19.2786L18.8311 35.2011L2.93489 19.2786C-1.01011 14.8611 -0.86198 8.07736 3.37739 3.83612C7.62427 -0.408884 14.4174 -0.551384 18.8349 3.40862ZM31.6336 6.48549C28.8211 3.66924 24.2836 3.55487 21.3399 6.19862L18.8368 8.44487L16.3318 6.20049C13.3786 3.55299 8.85052 3.66924 6.03052 6.48924C3.23677 9.28299 3.09614 13.7549 5.67052 16.7099L18.833 29.893L31.9955 16.7117C34.5718 13.7549 34.4311 9.28862 31.6336 6.48549Z" fill="#F64861"/>
<defs>
<linearGradient id="paint0_linear_503_2" x1="21.4868" y1="-6.88301" x2="15.9017" y2="22.622" gradientUnits="userSpaceOnUse">
<stop stop-color="#F64860"/>
<stop offset="1" stop-color="white"/>
</linearGradient>
</defs>
</svg>
