<svg width="41" height="41" viewBox="0 0 41 41" fill="none" xmlns="http://www.w3.org/2000/svg">
<rect x="6.41895" y="6.00323" width="28.8287" height="29.1078" rx="14.4144" fill="url(#paint0_linear_503_5)"/>
<path d="M20.8327 37.0834C11.6277 37.0834 4.16602 29.6218 4.16602 20.4168C4.16602 11.2118 11.6277 3.75008 20.8327 3.75008C30.0377 3.75008 37.4994 11.2118 37.4994 20.4168C37.4994 29.6218 30.0377 37.0834 20.8327 37.0834ZM20.8327 33.7501C24.3689 33.7501 27.7603 32.3453 30.2608 29.8448C32.7613 27.3444 34.166 23.953 34.166 20.4168C34.166 16.8805 32.7613 13.4891 30.2608 10.9887C27.7603 8.48818 24.3689 7.08342 20.8327 7.08342C17.2965 7.08342 13.9051 8.48818 11.4046 10.9887C8.90411 13.4891 7.49935 16.8805 7.49935 20.4168C7.49935 23.953 8.90411 27.3444 11.4046 29.8448C13.9051 32.3453 17.2965 33.7501 20.8327 33.7501V33.7501ZM17.5827 18.7501H25.8327V22.0834H17.5827C17.7271 22.7923 18.0535 23.4514 18.5299 23.9958C19.0064 24.5402 19.6163 24.9512 20.2998 25.1883C20.9832 25.4255 21.7167 25.4805 22.4279 25.3482C23.1391 25.2158 23.8036 24.9006 24.356 24.4334L27.1894 26.3218C26.2158 27.3816 24.9578 28.139 23.5655 28.5035C22.1733 28.868 20.7055 28.8242 19.3375 28.3774C17.9694 27.9306 16.7588 27.0996 15.8501 25.9836C14.9414 24.8675 14.373 23.5136 14.2127 22.0834H12.4993V18.7501H14.211C14.3708 17.3191 14.939 15.9644 15.848 14.8478C16.7569 13.7311 17.968 12.8996 19.3367 12.4527C20.7054 12.0058 22.1738 11.9623 23.5666 12.3274C24.9594 12.6925 26.2176 13.4508 27.191 14.5118L24.356 16.4001C23.8036 15.933 23.1391 15.6177 22.4279 15.4853C21.7167 15.353 20.9832 15.4081 20.2998 15.6452C19.6163 15.8823 19.0064 16.2933 18.5299 16.8377C18.0535 17.3821 17.7271 18.0412 17.5827 18.7501Z" fill="#F64861"/>
<defs>
<linearGradient id="paint0_linear_503_5" x1="23.1582" y1="-4.05871" x2="16.5679" y2="25.6016" gradientUnits="userSpaceOnUse">
<stop stop-color="#F64860"/>
<stop offset="1" stop-color="white"/>
</linearGradient>
</defs>
</svg>
