<svg width="33" height="55" viewBox="0 0 33 55" fill="none" xmlns="http://www.w3.org/2000/svg">
<path d="M16 13L1 27.5V53.5H32V27.5L16 13Z" fill="url(#paint0_linear)"/>
<path fill-rule="evenodd" clip-rule="evenodd" d="M5.51758 13.9785C5.51758 8.20098 10.1733 3.5 15.9287 3.5C21.6952 3.5 26.4072 8.21201 26.4072 13.9785C26.4072 15.6337 26.0187 17.2029 25.3279 18.5989L17.226 10.9915C16.6467 10.4476 15.7439 10.4497 15.1673 10.9963L0.968097 24.4553C0.669259 24.7385 0.5 25.1322 0.5 25.5439V53.0002C0.5 53.8286 1.17157 54.5002 2 54.5002H30.533C31.3614 54.5002 32.033 53.8286 32.033 53.0002V25.5439C32.033 25.1297 31.8617 24.7339 31.5597 24.4504L27.5908 20.7237C28.7451 18.7385 29.4072 16.4339 29.4072 13.9785C29.4072 6.55515 23.3521 0.5 15.9287 0.5C8.49445 0.5 2.51758 6.56618 2.51758 13.9785C2.51758 14.8069 3.18915 15.4785 4.01758 15.4785C4.84601 15.4785 5.51758 14.8069 5.51758 13.9785ZM23.6045 21.0959L16.204 14.1471L3.5 26.1889V51.5002H29.033V26.1931L25.7913 23.1492C24.3813 24.664 22.6284 25.8552 20.6593 26.5974C20.6357 29.1895 18.5271 31.2835 15.9294 31.2835C13.317 31.2835 11.1992 29.1658 11.1992 26.5534C11.1992 23.941 13.317 21.8232 15.9294 21.8232C17.4879 21.8232 18.8704 22.577 19.7322 23.7399C21.2164 23.1577 22.5374 22.2458 23.6045 21.0959ZM10.5469 43.0879C9.71845 43.0879 9.04688 43.7595 9.04688 44.5879C9.04688 45.4163 9.71845 46.0879 10.5469 46.0879H21.9197C22.7481 46.0879 23.4197 45.4163 23.4197 44.5879C23.4197 43.7595 22.7481 43.0879 21.9197 43.0879H10.5469ZM15.9294 24.8232C14.9738 24.8232 14.1992 25.5979 14.1992 26.5534C14.1992 27.5089 14.9738 28.2835 15.9294 28.2835C16.8849 28.2835 17.6595 27.5089 17.6595 26.5534C17.6595 25.5979 16.8849 24.8232 15.9294 24.8232Z" fill="#F64861"/>
<circle cx="16" cy="26.5" r="2" fill="white"/>
<defs>
<linearGradient id="paint0_linear" x1="19" y1="-0.999999" x2="7.5" y2="39" gradientUnits="userSpaceOnUse">
<stop stop-color="#F64860"/>
<stop offset="1" stop-color="white"/>
</linearGradient>
</defs>
</svg>
