<svg width="33" height="40" viewBox="0 0 33 40" fill="none" xmlns="http://www.w3.org/2000/svg">
<rect x="30.0928" y="37.2349" width="28.6423" height="22.9138" transform="rotate(-180 30.0928 37.2349)" fill="url(#paint0_linear)"/>
<path fill-rule="evenodd" clip-rule="evenodd" d="M15.2012 0.419456C15.7605 -0.139819 16.6673 -0.139819 17.2266 0.419456L25.8733 9.0662C26.4326 9.62548 26.4326 10.5322 25.8733 11.0915C25.314 11.6508 24.4073 11.6508 23.848 11.0915L17.8325 5.07602V26.4324C17.8325 27.2234 17.1913 27.8646 16.4004 27.8646C15.6095 27.8646 14.9683 27.2234 14.9683 26.4324V4.70306L8.57981 11.0915C8.02054 11.6508 7.11377 11.6508 6.5545 11.0915C5.99522 10.5322 5.99522 9.62548 6.5545 9.0662L15.2012 0.419456ZM3.36032 17.0362C3.36032 16.2452 2.71914 15.6041 1.92821 15.6041C1.13727 15.6041 0.496094 16.2452 0.496094 17.0362V33.9537C0.496094 36.8124 2.82903 39.1453 5.68766 39.1453H27.3045C30.1632 39.1453 32.4961 36.8124 32.4961 33.9537V17.0362C32.4961 16.2452 31.8549 15.6041 31.064 15.6041C30.273 15.6041 29.6319 16.2452 29.6319 17.0362V33.9537C29.6319 35.2305 28.5813 36.2811 27.3045 36.2811H5.68766C4.4109 36.2811 3.36032 35.2305 3.36032 33.9537V17.0362Z" fill="#F64861"/>
<defs>
<linearGradient id="paint0_linear" x1="53.8846" y1="21.5232" x2="42.7583" y2="56.1835" gradientUnits="userSpaceOnUse">
<stop stop-color="#F64860"/>
<stop offset="1" stop-color="white"/>
</linearGradient>
</defs>
</svg>
