<svg width="34" height="35" viewBox="0 0 34 35" fill="none" xmlns="http://www.w3.org/2000/svg">
<path d="M11.168 25.4247V27.9459C11.168 31.332 13.9129 34.0769 17.2989 34.0769C20.685 34.0769 23.4299 31.332 23.4299 27.9459V25.8471C23.4299 24.5396 23.1127 23.2516 22.5054 22.0937L21.493 20.1631C20.7199 18.6891 19.1929 17.7656 17.5285 17.7656C16.3576 17.7656 15.2333 18.2244 14.3966 19.0436L13.4687 19.9521C11.9973 21.3928 11.168 23.3654 11.168 25.4247Z" fill="url(#paint0_linear_503_3)"/>
<path d="M16.8327 15.7501C19.0428 15.7501 21.1624 16.6281 22.7252 18.1909C24.288 19.7537 25.166 21.8733 25.166 24.0834V34.0834H21.8327V24.0834C21.8328 22.8081 21.3455 21.5809 20.4705 20.653C19.5956 19.7251 18.3992 19.1666 17.126 19.0918L16.8327 19.0834C15.5573 19.0833 14.3302 19.5706 13.4022 20.4456C12.4743 21.3205 11.9158 22.5169 11.841 23.7901L11.8327 24.0834V34.0834H8.49935V24.0834C8.49935 21.8733 9.37732 19.7537 10.9401 18.1909C12.5029 16.6281 14.6225 15.7501 16.8327 15.7501ZM5.99935 20.7501C6.46435 20.7501 6.91602 20.8051 7.34935 20.9068C7.06439 21.7551 6.89563 22.6381 6.84768 23.5318L6.83268 24.0834V24.2268C6.6411 24.1582 6.44184 24.1134 6.23935 24.0934L5.99935 24.0834C5.37788 24.0834 4.7787 24.3149 4.31865 24.7328C3.8586 25.1506 3.57068 25.7248 3.51102 26.3434L3.49935 26.5834V34.0834H0.166016V26.5834C0.166016 25.0363 0.780597 23.5526 1.87456 22.4586C2.96852 21.3647 4.45225 20.7501 5.99935 20.7501ZM27.666 20.7501C29.2131 20.7501 30.6968 21.3647 31.7908 22.4586C32.8848 23.5526 33.4994 25.0363 33.4994 26.5834V34.0834H30.166V26.5834C30.166 25.9619 29.9345 25.3628 29.5167 24.9027C29.0988 24.4427 28.5246 24.1547 27.906 24.0951L27.666 24.0834C27.3743 24.0834 27.0944 24.1334 26.8327 24.2251V24.0834C26.8327 22.9734 26.6527 21.9068 26.3177 20.9101C26.7493 20.8051 27.201 20.7501 27.666 20.7501ZM5.99935 10.7501C7.10442 10.7501 8.16423 11.1891 8.94563 11.9705C9.72703 12.7519 10.166 13.8117 10.166 14.9168C10.166 16.0218 9.72703 17.0816 8.94563 17.863C8.16423 18.6444 7.10442 19.0834 5.99935 19.0834C4.89428 19.0834 3.83447 18.6444 3.05307 17.863C2.27167 17.0816 1.83268 16.0218 1.83268 14.9168C1.83268 13.8117 2.27167 12.7519 3.05307 11.9705C3.83447 11.1891 4.89428 10.7501 5.99935 10.7501ZM27.666 10.7501C28.7711 10.7501 29.8309 11.1891 30.6123 11.9705C31.3937 12.7519 31.8327 13.8117 31.8327 14.9168C31.8327 16.0218 31.3937 17.0816 30.6123 17.863C29.8309 18.6444 28.7711 19.0834 27.666 19.0834C26.5609 19.0834 25.5011 18.6444 24.7197 17.863C23.9383 17.0816 23.4993 16.0218 23.4993 14.9168C23.4993 13.8117 23.9383 12.7519 24.7197 11.9705C25.5011 11.1891 26.5609 10.7501 27.666 10.7501ZM5.99935 14.0834C5.77834 14.0834 5.56637 14.1712 5.41009 14.3275C5.25381 14.4838 5.16602 14.6957 5.16602 14.9168C5.16602 15.1378 5.25381 15.3497 5.41009 15.506C5.56637 15.6623 5.77834 15.7501 5.99935 15.7501C6.22036 15.7501 6.43232 15.6623 6.5886 15.506C6.74488 15.3497 6.83268 15.1378 6.83268 14.9168C6.83268 14.6957 6.74488 14.4838 6.5886 14.3275C6.43232 14.1712 6.22036 14.0834 5.99935 14.0834ZM27.666 14.0834C27.445 14.0834 27.233 14.1712 27.0768 14.3275C26.9205 14.4838 26.8327 14.6957 26.8327 14.9168C26.8327 15.1378 26.9205 15.3497 27.0768 15.506C27.233 15.6623 27.445 15.7501 27.666 15.7501C27.887 15.7501 28.099 15.6623 28.2553 15.506C28.4116 15.3497 28.4993 15.1378 28.4993 14.9168C28.4993 14.6957 28.4116 14.4838 28.2553 14.3275C28.099 14.1712 27.887 14.0834 27.666 14.0834ZM16.8327 0.750084C18.6008 0.750084 20.2965 1.45246 21.5467 2.70271C22.797 3.95295 23.4993 5.64864 23.4993 7.41675C23.4993 9.18486 22.797 10.8806 21.5467 12.1308C20.2965 13.381 18.6008 14.0834 16.8327 14.0834C15.0646 14.0834 13.3689 13.381 12.1186 12.1308C10.8684 10.8806 10.166 9.18486 10.166 7.41675C10.166 5.64864 10.8684 3.95295 12.1186 2.70271C13.3689 1.45246 15.0646 0.750084 16.8327 0.750084ZM16.8327 4.08342C15.9486 4.08342 15.1008 4.43461 14.4757 5.05973C13.8505 5.68485 13.4993 6.5327 13.4993 7.41675C13.4993 8.30081 13.8505 9.14865 14.4757 9.77377C15.1008 10.3989 15.9486 10.7501 16.8327 10.7501C17.7167 10.7501 18.5646 10.3989 19.1897 9.77377C19.8148 9.14865 20.166 8.30081 20.166 7.41675C20.166 6.5327 19.8148 5.68485 19.1897 5.05973C18.5646 4.43461 17.7167 4.08342 16.8327 4.08342Z" fill="#F64861"/>
<defs>
<linearGradient id="paint0_linear_503_3" x1="18.2878" y1="12.1272" x2="13.5851" y2="28.192" gradientUnits="userSpaceOnUse">
<stop stop-color="#F64860"/>
<stop offset="1" stop-color="white"/>
</linearGradient>
</defs>
</svg>
