<svg width="43" height="38" viewBox="0 0 43 38" fill="none" xmlns="http://www.w3.org/2000/svg">
<path fill-rule="evenodd" clip-rule="evenodd" d="M33.375 16.5105C33.375 7.42855 26.0518 0.25 17.0001 0.25C7.9333 0.25 0.625244 7.55806 0.625244 16.6249V30.492C0.625244 31.8803 1.75629 33.0026 3.14448 32.992L17.0061 32.8853C26.0702 32.8821 33.375 25.5753 33.375 16.5105Z" fill="url(#paint0_linear)"/>
<path fill-rule="evenodd" clip-rule="evenodd" d="M9.625 21.5105C9.625 12.4286 16.9482 5.25 25.9999 5.25C35.0667 5.25 42.3748 12.5581 42.3748 21.6249V35.492C42.3748 36.8803 41.2437 38.0026 39.8555 37.992L25.9939 37.8853C16.9298 37.8821 9.625 30.5753 9.625 21.5105Z" fill="url(#paint1_linear)"/>
<path fill-rule="evenodd" clip-rule="evenodd" d="M24.0436 5.36364C21.8769 3.87052 19.2354 3 16.3749 3C8.96491 3 3 8.96491 3 16.3749V29.7382L11.7886 29.6706C10.4115 27.2706 9.625 24.4854 9.625 21.5109C9.625 13.0933 15.9161 6.3108 24.0436 5.36364ZM13.9841 32.6538L2.51923 32.742C1.13104 32.7526 0 31.6303 0 30.242V16.3749C0 7.30806 7.30806 0 16.3749 0C21.2698 0 25.6593 2.09931 28.6585 5.46368C36.4537 6.72791 42.3748 13.4641 42.3748 21.6254V35.4925C42.3748 36.8807 41.2437 38.0031 39.8555 37.9924L25.9939 37.8858C21.2401 37.8841 16.9701 35.8734 13.9841 32.6538ZM25.9999 8.25049C18.5747 8.25049 12.625 14.1161 12.625 21.5109C12.625 28.9209 18.5899 34.8858 25.9999 34.8858H26.0114L26.0114 34.8859L39.3748 34.9887V21.6254C39.3748 14.2154 33.4098 8.25049 25.9999 8.25049ZM19.6523 16.7046C19.6523 15.9797 20.24 15.3921 20.9648 15.3921H32.407C33.1319 15.3921 33.7195 15.9797 33.7195 16.7046C33.7195 17.4294 33.1319 18.0171 32.407 18.0171H20.9648C20.24 18.0171 19.6523 17.4294 19.6523 16.7046ZM19.6532 22.1975C19.6532 21.4727 20.2408 20.885 20.9657 20.885H28.9752C29.7001 20.885 30.2877 21.4727 30.2877 22.1975C30.2877 22.9224 29.7001 23.51 28.9752 23.51H20.9657C20.2408 23.51 19.6532 22.9224 19.6532 22.1975ZM20.9657 26.3761C20.2408 26.3761 19.6532 26.9637 19.6532 27.6886C19.6532 28.4134 20.2408 29.0011 20.9657 29.0011H24.3984C25.1232 29.0011 25.7108 28.4134 25.7108 27.6886C25.7108 26.9637 25.1232 26.3761 24.3984 26.3761H20.9657Z" fill="#F64861"/>
<defs>
<linearGradient id="paint0_linear" x1="14.359" y1="-11.0682" x2="21.7061" y2="22.3261" gradientUnits="userSpaceOnUse">
<stop stop-color="#F64860"/>
<stop offset="1" stop-color="white"/>
</linearGradient>
<linearGradient id="paint1_linear" x1="28.641" y1="-6.06823" x2="21.2939" y2="27.3261" gradientUnits="userSpaceOnUse">
<stop stop-color="#F64860"/>
<stop offset="1" stop-color="white"/>
</linearGradient>
</defs>
</svg>
