<svg width="34" height="35" viewBox="0 0 34 35" fill="none" xmlns="http://www.w3.org/2000/svg">
<rect x="2.80957" y="2.43408" width="28.5161" height="29.1964" rx="14.2581" fill="url(#paint0_linear_304_1439)"/>
<path d="M17 34.4993C7.6109 34.4993 0 26.8884 0 17.4993C0 8.11017 7.6109 0.499268 17 0.499268C26.3891 0.499268 34 8.11017 34 17.4993C34 26.8884 26.3891 34.4993 17 34.4993ZM17 31.0993C20.6069 31.0993 24.0662 29.6664 26.6167 27.1159C29.1671 24.5654 30.6 21.1062 30.6 17.4993C30.6 13.8923 29.1671 10.4331 26.6167 7.88262C24.0662 5.33212 20.6069 3.89927 17 3.89927C13.3931 3.89927 9.93384 5.33212 7.38335 7.88262C4.83285 10.4331 3.4 13.8923 3.4 17.4993C3.4 21.1062 4.83285 24.5654 7.38335 27.1159C9.93384 29.6664 13.3931 31.0993 17 31.0993V31.0993ZM8.5 17.4993H11.9C11.9 18.8519 12.4373 20.1491 13.3938 21.1055C14.3502 22.0619 15.6474 22.5993 17 22.5993C18.3526 22.5993 19.6498 22.0619 20.6062 21.1055C21.5627 20.1491 22.1 18.8519 22.1 17.4993H25.5C25.5 19.7536 24.6045 21.9156 23.0104 23.5097C21.4163 25.1037 19.2543 25.9993 17 25.9993C14.7457 25.9993 12.5837 25.1037 10.9896 23.5097C9.39553 21.9156 8.5 19.7536 8.5 17.4993V17.4993Z" fill="#F64861"/>
<defs>
<linearGradient id="paint0_linear_304_1439" x1="19.3673" y1="-7.6585" x2="12.6731" y2="22.0526" gradientUnits="userSpaceOnUse">
<stop stop-color="#F64860"/>
<stop offset="1" stop-color="white"/>
</linearGradient>
</defs>
</svg>
