<?xml version="1.0" encoding="UTF-8" standalone="no"?>
<svg
   xmlns:dc="http://purl.org/dc/elements/1.1/"
   xmlns:cc="http://creativecommons.org/ns#"
   xmlns:rdf="http://www.w3.org/1999/02/22-rdf-syntax-ns#"
   xmlns:svg="http://www.w3.org/2000/svg"
   xmlns="http://www.w3.org/2000/svg"
   xmlns:xlink="http://www.w3.org/1999/xlink"
   xmlns:sodipodi="http://sodipodi.sourceforge.net/DTD/sodipodi-0.dtd"
   xmlns:inkscape="http://www.inkscape.org/namespaces/inkscape"
   id="196ecc45-c3c6-4b7d-8685-374129418fe3"
   data-name="Layer 1"
   width="1000"
   height="1100"
   viewBox="0 0 1000 1100"
   version="1.1"
   sodipodi:docname="undraw_agreement_aajr.svg"
   inkscape:version="0.92.4 (5da689c313, 2019-01-14)">
  <metadata
     id="metadata5141">
    <rdf:RDF>
      <cc:Work
         rdf:about="">
        <dc:format>image/svg+xml</dc:format>
        <dc:type
           rdf:resource="http://purl.org/dc/dcmitype/StillImage" />
        <dc:title>agreement</dc:title>
      </cc:Work>
    </rdf:RDF>
  </metadata>
  <sodipodi:namedview
     pagecolor="#ffffff"
     bordercolor="#666666"
     borderopacity="1"
     objecttolerance="10"
     gridtolerance="10"
     guidetolerance="10"
     inkscape:pageopacity="0"
     inkscape:pageshadow="2"
     inkscape:window-width="1920"
     inkscape:window-height="1017"
     id="namedview5139"
     showgrid="false"
     inkscape:zoom="0.55078415"
     inkscape:cx="164.89428"
     inkscape:cy="341.17112"
     inkscape:window-x="-8"
     inkscape:window-y="-8"
     inkscape:window-maximized="1"
     inkscape:current-layer="layer2" />
  <defs
     id="defs5066">
    <linearGradient
       id="431b905b-f630-4d26-9705-072736e3fa0a"
       x1="613.19"
       y1="813.70001"
       x2="613.19"
       y2="105.57"
       gradientTransform="translate(-0.86,-10.23)"
       gradientUnits="userSpaceOnUse">
      <stop
         offset="0"
         stop-color="gray"
         stop-opacity="0.25"
         id="stop5053" />
      <stop
         offset="0.54"
         stop-color="gray"
         stop-opacity="0.12"
         id="stop5055" />
      <stop
         offset="1"
         stop-color="gray"
         stop-opacity="0.1"
         id="stop5057" />
    </linearGradient>
    <linearGradient
       id="82c9264e-9b45-4df5-9d25-f7dacbcab158"
       x1="613.84003"
       y1="152.52"
       x2="613.84003"
       y2="92.5"
       gradientTransform="translate(-306.90557,242.28955)"
       xlink:href="#431b905b-f630-4d26-9705-072736e3fa0a" />
    <linearGradient
       id="e7f96ace-9b05-41bf-887d-5e87841d3793"
       x1="613.84003"
       y1="104.78"
       x2="613.84003"
       y2="33.84"
       gradientTransform="rotate(-24.52,710.95283,585.02412)"
       xlink:href="#431b905b-f630-4d26-9705-072736e3fa0a" />
    <linearGradient
       id="0e5c1f30-7912-44d8-85da-be3b7e04fbbd"
       x1="440.39999"
       y1="329.87"
       x2="440.39999"
       y2="222.94"
       gradientTransform="translate(-306.90435,242.29865)"
       xlink:href="#431b905b-f630-4d26-9705-072736e3fa0a" />
    <linearGradient
       id="f5898732-89b1-47b9-bad4-993f506fb52e"
       x1="440.76001"
       y1="541.78998"
       x2="440.76001"
       y2="434.85001"
       gradientTransform="translate(-306.90092,242.3003)"
       xlink:href="#431b905b-f630-4d26-9705-072736e3fa0a" />
    <linearGradient
       id="f9eac279-a8ac-46d5-97b7-7547b98d8743"
       x1="440.39999"
       y1="302"
       x2="440.39999"
       y2="249.50999"
       gradientTransform="rotate(-24.52,462.54654,807.55499)"
       xlink:href="#431b905b-f630-4d26-9705-072736e3fa0a" />
    <linearGradient
       id="56bc9504-3ea8-4a78-ad29-d599ef16b1a5"
       x1="599.62"
       y1="607.09998"
       x2="599.62"
       y2="100.78"
       xlink:href="#431b905b-f630-4d26-9705-072736e3fa0a"
       gradientTransform="translate(-42.355119,62.102686)" />
    <linearGradient
       y1="0"
       id="b"
       gradientUnits="userSpaceOnUse"
       x1="470.5"
       x2="470.5"
       y2="941"
       gradientTransform="matrix(1.1689693,0,0,1.1689691,-0.51099991,-100.00003)">
      <stop
         offset="0"
         stop-color="#d3e7ef"
         id="stop6024" />
      <stop
         offset="1"
         stop-color="#eef0f0"
         id="stop6026" />
    </linearGradient>
    <linearGradient
       inkscape:collect="always"
       xlink:href="#431b905b-f630-4d26-9705-072736e3fa0a"
       id="linearGradient6120"
       gradientUnits="userSpaceOnUse"
       gradientTransform="translate(-0.86,-10.23)"
       x1="613.19"
       y1="813.70001"
       x2="613.19"
       y2="105.57" />
  </defs>
  <title
     id="title5068">agreement</title>
  <g
     inkscape:groupmode="layer"
     id="layer1"
     inkscape:label="Layer 1"
     style="display:inline"
     transform="translate(0,100)">
    <circle
       style="fill:url(#b);stroke-width:1.16896927"
       cx="549.48895"
       cy="450"
       id="circle6036"
       r="550" />
  </g>
  <g
     inkscape:groupmode="layer"
     id="layer2"
     inkscape:label="Layer 2"
     style="display:inline"
     transform="translate(0,100)">
    <g
       id="g5072"
       style="opacity:0.5"
       transform="translate(114.76488,83.022686)">
      <rect
         x="356.07001"
         y="95.339996"
         width="512.51001"
         height="708.13"
         transform="rotate(-24.52,485.6548,800.45634)"
         id="rect5070"
         style="fill:url(#linearGradient6120)" />
    </g>
    <rect
       x="56.54808"
       y="353.08286"
       width="499.47"
       height="692.47998"
       transform="rotate(-24.52)"
       id="rect5074"
       style="fill:#ffffff" />
    <rect
       x="183.0544"
       y="334.78955"
       width="247.78"
       height="60.02"
       transform="rotate(-24.52)"
       id="rect5076"
       style="fill:url(#82c9264e-9b45-4df5-9d25-f7dacbcab158)" />
    <path
       d="m 393.85488,123.84269 c -17.4,7.94 -24.92,28.82 -16.79,46.64 8.13,17.82 28.83,25.83 46.23,17.89 17.4,-7.94 24.92,-28.82 16.79,-46.64 -8.13,-17.82 -28.83,-25.83 -46.23,-17.89 z m 23.21,50.88 a 20.47,20.47 0 1 1 9.69,-26.91 20.23,20.23 0 0 1 -9.69,26.92 z"
       id="path5078"
       inkscape:connector-curvature="0"
       style="fill:url(#e7f96ace-9b05-41bf-887d-5e87841d3793)" />
    <rect
       x="185.65753"
       y="334.83102"
       width="242.56"
       height="57.380001"
       transform="rotate(-24.52)"
       id="rect5080"
       style="fill:#f35267;fill-opacity:1" />
    <path
       d="m 394.93488,126.22269 a 33.91,33.91 0 1 0 44.92,16.78 33.91,33.91 0 0 0 -44.92,-16.78 z m 22.19,48.65 a 19.56,19.56 0 1 1 9.68,-25.92 19.56,19.56 0 0 1 -9.68,25.91 z"
       id="path5082"
       style="fill:#f35267;fill-opacity:1"
       inkscape:connector-curvature="0" />
    <rect
       x="80.025627"
       y="465.23868"
       width="106.94"
       height="106.94"
       transform="rotate(-24.52)"
       id="rect5084"
       style="fill:url(#0e5c1f30-7912-44d8-85da-be3b7e04fbbd)" />
    <rect
       x="80.389084"
       y="677.16034"
       width="106.94"
       height="106.94"
       transform="rotate(-24.52)"
       id="rect5086"
       style="fill:url(#f5898732-89b1-47b9-bad4-993f506fb52e)" />
    <rect
       x="83.935631"
       y="469.14865"
       width="99.110001"
       height="99.110001"
       transform="rotate(-24.52)"
       id="rect5088"
       style="fill:#69f0ae" />
    <rect
       x="83.939125"
       y="679.1037"
       width="99.110001"
       height="99.110001"
       transform="rotate(-24.52)"
       id="rect5090"
       style="fill:#69cbea;fill-opacity:1" />
    <rect
       x="248.24951"
       y="499.74612"
       width="135.85001"
       height="9.4799995"
       transform="rotate(-24.52)"
       id="rect5092"
       style="fill:#e0e0e0" />
    <rect
       x="248.25644"
       y="513.96771"
       width="224.31"
       height="9.4799995"
       transform="rotate(-24.52)"
       id="rect5094"
       style="fill:#e0e0e0" />
    <rect
       x="248.24825"
       y="528.18097"
       width="208.50999"
       height="9.4799995"
       transform="rotate(-24.52)"
       id="rect5096"
       style="fill:#e0e0e0" />
    <rect
       x="248.25298"
       y="709.71118"
       width="135.85001"
       height="9.4799995"
       transform="rotate(-24.52)"
       id="rect5098"
       style="fill:#e0e0e0" />
    <rect
       x="248.25993"
       y="723.92273"
       width="224.31"
       height="9.4799995"
       transform="rotate(-24.52)"
       id="rect5100"
       style="fill:#e0e0e0" />
    <rect
       x="248.25171"
       y="738.146"
       width="208.50999"
       height="9.4799995"
       transform="rotate(-24.52)"
       id="rect5102"
       style="fill:#e0e0e0" />
    <polygon
       points="229.9,300.31 241.2,303.4 228.49,358.65 193.47,343.3 199.04,337.46 222.26,345 "
       id="polygon5104"
       style="fill:url(#f9eac279-a8ac-46d5-97b7-7547b98d8743)"
       transform="translate(114.76488,83.022686)" />
    <polygon
       points="228.83,304.56 238.65,307.25 227.6,355.29 197.15,341.95 202,336.87 222.19,343.42 "
       id="polygon5106"
       style="fill:#ffffff"
       transform="translate(114.76488,83.022686)" />
    <polygon
       points="316.51,496.77 326.33,499.46 315.28,547.5 284.83,534.16 289.68,529.08 309.87,535.63 "
       id="polygon5108"
       style="fill:#ffffff"
       transform="translate(114.76488,83.022686)" />
    <rect
       x="147.84053"
       y="889.72119"
       width="316.89999"
       height="105.63"
       transform="rotate(-24.52)"
       id="rect5110"
       style="fill:#e0e0e0" />
    <path
       d="m 750.27488,693.20269 c -11.08,-3.16 -22.42,-2.56 -25.95,10.11 -1.19,4.27 -1.33,10.9 -5.91,13.1 -6.74,3.24 -14.87,-3.24 -20.72,-5.88 -10.9,-4.92 -22.09,-1.57 -28.4,8.77 -3.2,5.24 -4.57,11.27 -5.66,17.24 -0.47,2.59 -0.53,5.79 -1.62,8.23 -2.09,4.67 -8.63,4.25 -12.92,4.07 -0.94,0 -1.9,-0.11 -2.86,-0.21 a 25.33,25.33 0 0 0 4.8,-16.13 c -0.28,-9.47 -6.43,-19.83 -17.18,-18.67 -9.63,1 -16.41,10.3 -15.33,19.71 0.92,8 6.13,14.2 12.81,18 -3.28,1.45 -6.78,2.58 -9.88,4.08 a 41.43,41.43 0 0 0 -4.21,2.35 c -9.37,-4.52 -21.68,-5.37 -30.11,-0.76 -4.08,2.23 -1.1,8.86 3,6.61 6.42,-3.51 13.5,-2.63 20.21,-0.4 l 0.56,0.2 a 18.06,18.06 0 0 0 -1.75,2.71 c -3.79,7.36 0,19 9.22,19.8 13,1.11 13.61,-16.07 6.55,-22.91 -0.3,-0.29 -0.6,-0.57 -0.92,-0.84 2.92,-1.41 6.08,-2.47 8.87,-3.66 a 36.89,36.89 0 0 0 6.9,-3.84 l 0.5,0.13 c 9.93,2.25 25.43,2.95 29,-9.08 3.06,-10.44 3.35,-32.61 19.85,-30.56 6.73,0.83 12.25,6 18.65,7.87 5.73,1.71 12.36,1.78 17.06,-2.44 3.88,-3.48 4.75,-8.62 5.94,-13.42 0.61,-2.48 1.21,-5.44 3.23,-7.21 3.65,-3.19 9.68,-1.31 13.75,-0.15 4.45,1.26 7.03,-5.54 2.52,-6.82 z m -129,84.59 c -2.19,2.17 -4.51,0.45 -5.68,-1.82 -1.42,-2.76 -0.81,-5.48 1,-7.91 a 13.74,13.74 0 0 1 0.95,-1.14 c 4.33,2.8 7.87,6.81 3.77,10.87 z m 7.68,-54 c 4.5,-4.18 10.77,-3.26 13.45,2.48 2.68,5.74 1.5,13.84 -2.26,18.9 a 15.26,15.26 0 0 1 -1.65,1.86 21.07,21.07 0 0 1 -7.13,-4.07 c -5.32,-4.8 -8.33,-13.67 -2.37,-19.2 z"
       id="path5112"
       style="fill:#f35267;fill-opacity:1"
       inkscape:connector-curvature="0" />
    <path
       d="m 810.24488,304.73269 -80.72,31.47 c -15.18,-1.13 -47.12,-5.25 -78.82,-20.2 -35.29,-16.64 -75.72,-16.6 -110,0.83 -79,1.89 -122.48,-8.23 -145.68,-17.81 l 6.12,-12.56 -81.82,-31.9 -204.56,-91.68 v 375.76 l 71.59,31.9 38.4,-92.12 84.33,39 16.19,-41.14 55.37,41.09 3.77,3.17 -5.19,5.39 a 27.06,27.06 0 0 0 0,37.21 v 0 a 24.64,24.64 0 0 0 35.8,0 l -2.84,3 a 27.06,27.06 0 0 0 0,37.21 v 0 a 24.64,24.64 0 0 0 35.8,0 l 16.4,-17.05 v 0 l -11.26,11.7 a 27.06,27.06 0 0 0 0,37.21 v 0 a 24.64,24.64 0 0 0 35.8,0 l 16.19,-16.83 v 0 l -6.81,7.08 a 18.9,18.9 0 0 0 0,26 17.21,17.21 0 0 0 25,0 l 10.8,-11.22 c 18.55,13.55 33.56,23.44 40.91,26 30.63,10.62 30.63,-10.65 30.63,-10.65 40.91,21.26 61.37,-21.26 61.37,-21.26 51.14,21.26 51.14,-31.9 51.14,-31.9 12.78,8.86 22,4.8 28.44,-3 8.77,-10.58 9.84,-25.51 3.82,-37.49 l 48.88,-45.17 21.14,43.22 84.33,-39 38.4,85.13 56.54997,-25.25 v -371.83 z"
       id="path5114"
       inkscape:connector-curvature="0"
       style="fill:url(#56bc9504-3ea8-4a78-ad29-d599ef16b1a5)" />
    <polygon
       points="523.65,369.02 681.9,329.46 681.9,418.48 592.88,497.6 "
       id="polygon5116"
       style="fill:#be7c5e"
       transform="translate(114.76488,83.022686)" />
    <path
       d="m 371.36488,293.79269 c 0,0 28.57,39.56 197.81,29.67 l 98.91,148.36 66.28,74.57 c 10.41,11.72 11,29.49 0.78,41.37 -6.21,7.21 -15.14,11 -27.5,2.75 0,0 0,49.45 -49.45,29.67 0,0 -19.78,39.56 -59.34,19.78 0,0 0,19.78 -29.67,9.89 -29.67,-9.89 -187.93,-138.46 -187.93,-138.46 l -69.23,-49.45 z"
       id="path5118"
       inkscape:connector-curvature="0"
       style="fill:#fda57d" />
    <path
       d="m 727.42488,343.25269 c 0,0 -42.74,0 -85,-19.19 -38.43,-17.43 -83.18,-15.21 -118.64,7.67 -28.9,18.65 -53.94,49.53 -53.47,100.53 0,0 38.46,39.56 79.12,-39.56 h 29.67 c 0,0 28.57,98.91 108.8,89 80.23,-9.91 98.91,-19.78 98.91,-19.78 z"
       id="path5120"
       inkscape:connector-curvature="0"
       style="fill:#be7c5e" />
    <rect
       x="684.82062"
       y="50.05241"
       width="48.959999"
       height="76.93"
       rx="22.209999"
       ry="22.209999"
       transform="rotate(45)"
       id="rect5122"
       style="fill:#be7c5e" />
    <rect
       x="635.85986"
       y="46.173885"
       width="48.959999"
       height="76.93"
       rx="22.209999"
       ry="22.209999"
       transform="rotate(45)"
       id="rect5124"
       style="fill:#be7c5e" />
    <rect
       x="733.76617"
       y="36.063595"
       width="48.959999"
       height="83.919998"
       rx="22.209999"
       ry="22.209999"
       transform="rotate(45)"
       id="rect5126"
       style="fill:#be7c5e" />
    <rect
       x="782.73138"
       y="43.83485"
       width="34.189999"
       height="55.950001"
       rx="15.51"
       ry="15.51"
       transform="rotate(45)"
       id="rect5128"
       style="fill:#be7c5e" />
    <polygon
       points="602.77,260.23 681.9,230.56 780.8,438.26 691.79,477.82 "
       id="polygon5130"
       style="fill:#ffffff"
       transform="translate(114.76488,83.022686)" />
    <polygon
       points="286.28,210.78 207.15,181.1 108.25,388.81 197.26,428.37 "
       id="polygon5132"
       style="fill:#ffffff"
       transform="translate(114.76488,83.022686)" />
    <polygon
       points="78.58,477.82 9.34,448.15 9.34,92.09 207.15,181.1 "
       id="polygon5134"
       style="fill:#333333"
       transform="translate(114.76488,83.022686)" />
    <polygon
       points="810.48,527.27 879.71,497.6 879.71,141.54 681.9,230.56 "
       id="polygon5136"
       style="fill:#333333;fill-opacity:1"
       transform="translate(114.76488,83.022686)" />
  </g>
</svg>
