<svg width="72" height="52" viewBox="0 0 72 52" fill="none" xmlns="http://www.w3.org/2000/svg">
<path d="M59.8785 17.2286C56.6048 5.03357 43.3792 -2.37076 30.338 0.69047C20.1466 3.08282 12.7466 11.3195 11.9841 21.1193C4.7478 22.2352 -0.151053 28.6253 1.04229 35.3921C2.10312 41.4078 7.67743 45.8134 14.1973 45.7892H25.2635V41.65H14.1973C9.30803 41.65 5.3444 37.9435 5.3444 33.3715C5.3444 28.7994 9.30803 25.093 14.1973 25.093C15.4197 25.093 16.4106 24.1665 16.4106 23.0234C16.3995 12.7362 25.3087 4.38837 36.3097 4.37815C45.8327 4.36922 54.0304 10.6648 55.8725 19.4015C56.0544 20.2739 56.8115 20.9403 57.7538 21.0572C63.8045 21.863 68.0108 27.1029 67.1494 32.7608C66.3757 37.8415 61.7367 41.6244 56.2488 41.65H47.3958V45.7892H56.2488C64.8051 45.765 71.7204 39.2592 71.6944 31.258C71.6728 24.5977 66.7976 18.8091 59.8785 17.2286Z" fill="#F64861"/>
<path d="M34.7592 25.6957L25.9062 33.9742L29.0269 36.8924L34.1173 32.153V52.0007H38.5438V32.153L43.6121 36.8924L46.7327 33.9742L37.8798 25.6957C37.0165 24.8932 35.6225 24.8932 34.7592 25.6957Z" fill="#F64861"/>
</svg>
